
<svg width="1080" height="440" viewBox="0 0 1080 440" fill="none" xmlns="http://www.w3.org/2000/svg">
<path fill-rule="evenodd" clip-rule="evenodd" d="M208.916 80.2977L139.277 27.9012V392.319L174.163 416.16L209.048 440L208.916 80.2977ZM0 6.94255L118.399 82.5246V377.124L47.571 331.015V82.6555L0 6.94255ZM341.19 0L229.795 81.6076V307.306L298.773 259.887V81.6076L341.19 0Z" fill="black"/>
<path fill-rule="evenodd" clip-rule="evenodd" d="M208.916 80.2977L139.277 27.9012V392.319L174.163 416.16L209.048 440L208.916 80.2977ZM0 6.94255L118.399 82.5246V377.124L47.571 331.015V82.6555L0 6.94255ZM341.19 0L229.795 81.6076V307.306L298.773 259.887V81.6076L341.19 0Z" fill="black"/>
<path d="M459.443 101.135H477.359L488.02 174.564H489.353L499.866 101.135H517.93V178.406H509.046V105.124H507.713L497.2 178.406H480.172L469.512 105.124H468.179V178.406H459.443V101.135Z" fill="black"/>
<path d="M551.097 101.135V152.403C551.097 158.608 552.578 163.483 555.539 166.586C558.501 169.689 562.943 171.314 568.717 171.314C574.492 171.314 578.786 169.689 581.747 166.586C584.709 163.336 586.189 158.608 586.189 152.403V101.135H595.666V152.403C595.666 161.415 593.297 168.211 588.41 172.939C583.672 177.667 577.009 180.031 568.717 180.031C560.277 180.031 553.762 177.667 549.024 172.939C544.286 168.211 541.769 161.415 541.769 152.403V101.135H551.097Z" fill="black"/>
<path d="M664.073 174.564H665.405V101.135H674.882V178.406H655.929L633.275 105.124H631.942V178.406H622.466V101.135H641.27L664.073 174.564Z" fill="black"/>
<path d="M727 169.837C730.406 169.837 733.367 169.541 735.884 168.802C738.401 168.211 740.474 167.029 742.103 165.552C743.732 163.927 744.916 161.858 745.657 159.199C746.545 156.539 746.841 153.141 746.841 149.152V130.536C746.841 126.547 746.397 123.149 745.657 120.49C744.916 117.83 743.732 115.762 742.103 114.137C740.474 112.511 738.401 111.33 735.884 110.739C733.367 110.148 730.406 109.704 727 109.704H718.708V169.837H727ZM702.421 101.135H728.185C737.957 101.135 745.064 103.351 749.506 107.931C753.949 112.511 756.318 119.751 756.318 129.798V149.743C756.318 159.79 754.097 167.029 749.506 171.609C745.064 176.19 737.957 178.406 728.185 178.406H702.421V169.689H709.232V109.704H702.421V101.135Z" fill="black"/>
<path d="M791.116 101.135V152.403C791.116 158.608 792.597 163.483 795.558 166.586C798.519 169.689 802.961 171.314 808.736 171.314C814.511 171.314 818.805 169.689 821.766 166.586C824.727 163.336 826.208 158.608 826.208 152.403V101.135H835.685V152.403C835.685 161.415 833.315 168.211 828.429 172.939C823.691 177.667 817.028 180.031 808.736 180.031C800.296 180.031 793.781 177.667 789.043 172.939C784.305 168.211 781.788 161.415 781.788 152.403V101.135H791.116Z" fill="black"/>
<path d="M907.201 123.445C907.201 120.934 906.608 118.717 905.572 116.797C904.535 114.876 903.203 113.251 901.574 112.069C899.797 110.887 897.872 109.853 895.651 109.262C893.43 108.671 891.061 108.228 888.544 108.228C886.323 108.228 884.25 108.523 882.325 109.114C880.4 109.557 878.623 110.444 876.995 111.478C875.514 112.512 874.329 113.842 873.441 115.319C872.553 116.797 872.108 118.57 872.108 120.49V121.081C872.108 123.15 872.553 125.07 873.441 126.548C874.329 128.025 875.662 129.355 877.439 130.389C879.216 131.424 881.437 132.31 884.102 133.049C886.767 133.64 889.729 134.231 893.282 134.822C901.574 136.004 907.645 138.515 911.495 142.061C915.344 145.459 917.269 150.187 917.269 156.097V157.427C917.269 160.677 916.677 163.78 915.493 166.587C914.308 169.246 912.679 171.61 910.31 173.679C908.089 175.599 905.276 177.224 901.87 178.259C898.465 179.293 894.615 179.884 890.173 179.884C885.138 179.884 880.696 179.145 876.847 177.815C872.997 176.338 869.739 174.417 867.222 171.906C864.705 169.394 862.78 166.291 861.448 162.893C860.115 159.495 859.375 155.654 859.375 151.665V148.414H868.851V151.074C868.851 157.87 870.776 162.893 874.478 166.291C878.327 169.689 883.51 171.315 890.321 171.315C896.096 171.315 900.538 170.133 903.499 167.621C906.46 165.109 907.941 161.711 907.941 157.427V156.836C907.941 152.847 906.46 149.744 903.351 147.528C900.39 145.459 895.503 143.834 888.692 142.948C884.694 142.504 881.141 141.618 877.883 140.584C874.774 139.55 872.108 138.072 869.739 136.447C867.518 134.674 865.741 132.605 864.557 130.094C863.372 127.73 862.78 124.775 862.78 121.525V120.195C862.78 117.24 863.372 114.433 864.705 111.921C866.038 109.41 867.666 107.193 870.035 105.42C872.405 103.648 875.07 102.17 878.179 101.284C881.437 100.249 884.99 99.8061 888.692 99.8061C893.134 99.8061 896.984 100.397 900.538 101.727C904.091 102.909 907.053 104.682 909.422 106.75C911.791 108.819 913.568 111.33 914.752 114.137C916.085 116.945 916.677 119.899 916.677 123.002V127.582H907.201V123.445V123.445Z" fill="black"/>
<path d="M507.12 289.211C507.12 286.7 506.528 284.484 505.491 282.563C504.455 280.642 503.122 279.017 501.493 277.835C499.717 276.653 497.792 275.619 495.571 275.028C493.35 274.289 490.981 273.994 488.463 273.994C486.242 273.994 484.169 274.289 482.245 274.88C480.32 275.471 478.543 276.21 476.914 277.244C475.433 278.278 474.249 279.608 473.36 281.086C472.472 282.563 472.028 284.336 472.028 286.257V286.848C472.028 288.916 472.472 290.837 473.36 292.314C474.249 293.792 475.581 295.121 477.358 296.155C479.135 297.19 481.356 298.076 484.021 298.815C486.687 299.406 489.648 299.997 493.202 300.588C501.493 301.77 507.564 304.281 511.414 307.827C515.264 311.225 517.189 315.953 517.189 321.863V323.193C517.189 326.443 516.596 329.546 515.412 332.353C514.227 335.012 512.599 337.376 510.23 339.445C508.009 341.365 505.195 342.991 501.79 344.025C498.384 345.059 494.534 345.65 490.092 345.65C485.058 345.65 480.616 344.911 476.766 343.582C472.916 342.104 469.659 340.183 467.142 337.672C464.624 335.16 462.7 332.057 461.367 328.659C460.034 325.261 459.294 321.42 459.294 317.431V314.18H468.77V316.84C468.77 323.636 470.695 328.659 474.397 332.057C478.247 335.456 483.429 337.081 490.24 337.081C496.015 337.081 500.457 335.899 503.418 333.387C506.38 330.876 507.86 327.477 507.86 323.193V322.454C507.86 318.465 506.38 315.362 503.27 313.146C500.309 311.078 495.423 309.452 488.612 308.566C484.614 308.123 481.06 307.236 477.803 306.202C474.693 305.168 472.028 303.69 469.659 302.065C467.438 300.292 465.661 298.224 464.476 295.712C463.292 293.348 462.7 290.393 462.7 287.143V285.813C462.7 282.858 463.292 280.051 464.624 277.54C465.957 275.028 467.586 272.812 469.955 271.039C472.324 269.266 474.989 267.789 478.099 266.902C481.356 265.868 484.91 265.425 488.612 265.425C493.054 265.425 496.903 266.016 500.457 267.345C504.011 268.527 506.972 270.3 509.341 272.369C511.71 274.437 513.487 276.949 514.672 279.756C516.004 282.563 516.596 285.518 516.596 288.62V293.201H507.12V289.211V289.211Z" fill="black"/>
<path d="M544.879 265.921H592.409V274.491H554.208V300.198H591.817V308.767H554.208V334.623H593.15V343.192H544.879V265.921Z" fill="black"/>
<path d="M649.115 336.099C652.373 336.099 655.038 335.656 657.259 334.622C659.628 333.588 661.405 332.11 662.886 330.337C664.366 328.564 665.403 326.496 666.143 324.132C666.884 321.768 667.328 319.256 667.328 316.745V315.415H676.804V316.745C676.804 320.586 676.212 324.28 675.027 327.826C673.843 331.224 672.066 334.179 669.697 336.838C667.328 339.35 664.514 341.271 661.109 342.748C657.703 344.078 653.705 344.816 649.263 344.816C640.527 344.816 633.864 342.157 628.978 336.69C624.092 331.372 621.723 323.541 621.723 313.199V295.913C621.723 285.866 624.092 278.183 628.978 272.569C633.864 267.103 640.675 264.295 649.263 264.295C653.705 264.295 657.703 265.034 661.109 266.512C664.514 267.841 667.476 269.91 669.697 272.421C672.066 274.933 673.843 277.888 675.027 281.434C676.212 284.832 676.804 288.526 676.804 292.367V293.697H667.328V292.367C667.18 289.855 666.884 287.491 666.143 285.127C665.403 282.764 664.366 280.695 662.886 278.922C661.405 277.149 659.628 275.672 657.407 274.638C655.186 273.603 652.373 273.012 649.263 273.012C643.193 273.012 638.602 275.228 635.493 279.513C632.532 283.798 631.051 289.56 631.051 296.652V312.608C631.051 320.143 632.532 326.053 635.493 330.19C638.454 334.031 643.045 336.099 649.115 336.099Z" fill="black"/>
<path d="M711.16 266.909V318.176C711.16 324.381 712.641 329.257 715.602 332.36C718.563 335.462 723.005 337.087 728.78 337.087C734.555 337.087 738.849 335.462 741.81 332.36C744.771 329.109 746.252 324.381 746.252 318.176V266.909H755.728V318.176C755.728 327.189 753.359 333.985 748.473 338.713C743.735 343.44 737.072 345.804 728.78 345.804C720.34 345.804 713.825 343.44 709.087 338.713C704.349 333.985 701.832 327.189 701.832 318.176V266.909H711.16Z" fill="black"/>
<path d="M793.19 303.697H810.662C815.992 303.697 819.842 302.663 822.507 300.447C825.172 298.231 826.505 294.832 826.505 290.548V288.479C826.505 284.638 825.172 281.388 822.507 279.024C819.99 276.66 815.992 275.33 810.662 275.33H793.19V303.697ZM833.168 344.179H823.692V318.324C823.692 316.403 823.247 314.926 822.359 313.892C821.471 312.857 819.842 312.414 817.621 312.414H793.19V344.179H783.713V266.909H811.846C815.844 266.909 819.398 267.5 822.359 268.682C825.32 269.716 827.838 271.341 829.762 273.262C831.835 275.182 833.316 277.399 834.204 280.058C835.241 282.57 835.833 285.229 835.833 288.036V291.287C835.833 294.094 834.945 297.049 833.316 299.856C831.687 302.663 829.318 304.879 825.913 306.504V307.834C828.134 308.129 829.91 309.016 831.243 310.493C832.576 311.823 833.168 313.892 833.168 316.403V344.179V344.179Z" fill="black"/>
<path d="M863.667 266.909H913.566V275.478H893.281V335.61H913.566V344.179H863.667V335.61H883.952V275.478H863.667V266.909Z" fill="black"/>
<path d="M940.962 266.909H996.191V275.478H973.389V344.179H963.912V275.478H940.962V266.909Z" fill="black"/>
<path d="M1043.87 316.994H1041.8L1017.22 266.909H1027.88L1047.87 309.016H1049.2L1069.34 266.909H1080L1055.27 316.994H1053.35V344.179H1043.87V316.994Z" fill="black"/>
<defs>
<linearGradient id="paint0_linear_43_2" x1="170.595" y1="0" x2="170.595" y2="440" gradientUnits="userSpaceOnUse">
<stop stop-color="#BFD1FF"/>
<stop offset="1" stop-color="#769DFF"/>
</linearGradient>
</defs>
</svg>
