<svg width="521" height="97" viewBox="0 0 521 97" fill="none" xmlns="http://www.w3.org/2000/svg" id="svg-1746154746_9413">
<path d="M29.7966 65.5442C28.5641 65.5442 27.3592 65.9091 26.3344 66.5929C25.3096 67.2768 24.5109 68.2487 24.0392 69.3858C23.5676 70.5229 23.4441 71.7742 23.6846 72.9814C23.9251 74.1885 24.5186 75.2974 25.39 76.1677C26.2616 77.0381 27.372 77.6308 28.5809 77.8709C29.7898 78.111 31.0427 77.9878 32.1815 77.5168C33.3202 77.0457 34.2935 76.2481 34.9782 75.2247C35.663 74.2013 36.0284 72.9981 36.0284 71.7673C36.0284 70.1168 35.3719 68.5339 34.2031 67.3669C33.0345 66.1999 31.4494 65.5442 29.7966 65.5442Z" fill="black"></path>
<path d="M52.9073 40.3116C51.6748 40.3116 50.47 40.6766 49.4451 41.3604C48.4203 42.0443 47.6216 43.0162 47.1499 44.1532C46.6783 45.2904 46.5548 46.5417 46.7953 47.7489C47.0358 48.956 47.6293 50.0648 48.5008 50.9352C49.3723 51.8055 50.4827 52.3982 51.6916 52.6383C52.9005 52.8784 54.1534 52.7552 55.2922 52.2842C56.4309 51.8132 57.4042 51.0155 58.0889 49.9921C58.7737 48.9687 59.1391 47.7655 59.1391 46.5348C59.1391 44.8842 58.4826 43.3014 57.3139 42.1344C56.1452 40.9673 54.5601 40.3116 52.9073 40.3116Z" fill="black"></path>
<path d="M6.23178 40.3116C4.99929 40.3116 3.79443 40.6766 2.76959 41.3604C1.74474 42.0443 0.946086 43.0162 0.47441 44.1532C0.00273467 45.2904 -0.120768 46.5417 0.1198 47.7489C0.360243 48.956 0.953782 50.0648 1.82523 50.9352C2.6968 51.8055 3.80717 52.3982 5.01607 52.6383C6.22497 52.8784 7.47789 52.7552 8.61665 52.2842C9.7554 51.8132 10.7287 51.0155 11.4134 49.9921C12.0981 48.9687 12.4636 47.7655 12.4636 46.5348C12.4636 44.8842 11.8071 43.3014 10.6383 42.1344C9.46967 40.9673 7.8846 40.3116 6.23178 40.3116Z" fill="black"></path>
<path d="M29.7966 26.3034C31.0297 26.3059 32.2358 25.943 33.2623 25.2607C34.2888 24.5784 35.0895 23.6074 35.563 22.4705C36.0367 21.3336 36.1619 20.0819 35.9228 18.874C35.6839 17.666 35.0914 16.5559 34.2203 15.6843C33.3492 14.8128 32.2389 14.2188 31.0297 13.9777C29.8204 13.7365 28.5669 13.8591 27.4274 14.3297C26.288 14.8003 25.3138 15.5979 24.6286 16.6215C23.9432 17.6452 23.5774 18.8489 23.5774 20.0803C23.5774 21.7285 24.2322 23.3095 25.3982 24.4763C26.5643 25.6429 28.146 26.3 29.7966 26.3034Z" fill="black"></path>
<path d="M43.9759 54.572C41.7466 52.3321 40.4953 49.3023 40.4953 46.1443C40.4953 42.9863 41.7466 39.9564 43.9759 37.7166C44.8451 36.8453 45.4361 35.7364 45.6746 34.53C45.9131 33.3234 45.7882 32.0735 45.3157 30.9377C44.8434 29.8021 44.0446 28.8316 43.0203 28.1489C41.9961 27.4661 40.7922 27.1018 39.5606 27.1018C38.3292 27.1018 37.1253 27.4661 36.1011 28.1489C35.0768 28.8316 34.278 29.8021 33.8057 30.9377C33.3332 32.0735 33.2083 33.3234 33.4468 34.53C33.6853 35.7364 34.2763 36.8453 35.1454 37.7166C36.2652 38.8246 37.1542 40.1433 37.7609 41.5963C38.3674 43.0492 38.6797 44.6079 38.6797 46.1821C38.6797 47.7563 38.3674 49.3149 37.7609 50.7679C37.1542 52.2209 36.2652 53.5395 35.1454 54.6475C34.2763 55.5188 33.6853 56.6277 33.4468 57.8342C33.2083 59.0408 33.3332 60.2907 33.8057 61.4265C34.278 62.5621 35.0768 63.5326 36.1011 64.2153C37.1253 64.898 38.3292 65.2624 39.5606 65.2624C40.7922 65.2624 41.9961 64.898 43.0203 64.2153C44.0446 63.5326 44.8434 62.5621 45.3157 61.4265C45.7882 60.2907 45.9131 59.0408 45.6746 57.8342C45.4361 56.6277 44.8451 55.5188 43.9759 54.6475V54.572Z" fill="black"></path>
<path d="M26.0374 58.2C26.0307 56.5661 25.3883 54.9986 24.246 53.8287C22.0167 51.5889 20.7654 48.559 20.7654 45.401C20.7654 42.243 22.0167 39.2133 24.246 36.9733C25.1152 36.1021 25.7062 34.9932 25.9446 33.7867C26.1832 32.5803 26.0583 31.3302 25.5859 30.1946C25.1136 29.0588 24.3148 28.0884 23.2904 27.4056C22.2662 26.723 21.0623 26.3585 19.8308 26.3585C18.5993 26.3585 17.3955 26.723 16.3711 27.4056C15.3469 28.0884 14.5481 29.0588 14.0757 30.1946C13.6034 31.3302 13.4785 32.5803 13.7169 33.7867C13.9555 34.9932 14.5465 36.1021 15.4155 36.9733C16.5335 38.0812 17.4208 39.399 18.0263 40.8508C18.6319 42.3027 18.9436 43.8598 18.9436 45.4325C18.9436 47.0053 18.6319 48.5624 18.0263 50.0143C17.4208 51.4662 16.5335 52.784 15.4155 53.8917C14.6981 54.6193 14.1709 55.5121 13.8807 56.4913C13.5904 57.4703 13.5457 58.5057 13.7509 59.5062C13.956 60.5066 14.4044 61.4412 15.0568 62.2276C15.7091 63.0141 16.5451 63.6281 17.4912 64.0156C18.4373 64.4031 19.4643 64.5522 20.4817 64.4497C21.4991 64.3471 22.4756 63.9962 23.3251 63.4276C24.1746 62.8592 24.871 62.0908 25.3528 61.1901C25.8346 60.2894 26.0871 59.2841 26.0878 58.263L26.0374 58.2Z" fill="black"></path>
<path d="M91.2721 74.3247L70.8459 22.0001H79.3232L96.9236 68.278H94.5016L112.102 22.0001H120.418L100.153 74.3247H91.2721ZM136.185 51.6695V67.3911H169.933V74.3247H128.435V22.0001H169.852V28.9337H136.185V44.8972H163.716V51.6695H136.185ZM188.932 22.0001V67.3911H219.774V74.3247H181.182V22.0001H188.932ZM253.454 75.2116C248.017 75.2116 243.173 74.1097 238.922 71.906C234.724 69.7023 231.414 66.5849 228.991 62.5537C226.622 58.5225 225.439 53.7389 225.439 48.2027C225.439 42.6129 226.622 37.8023 228.991 33.7712C231.414 29.74 234.724 26.6225 238.922 24.4188C243.173 22.2152 248.017 21.1133 253.454 21.1133C258.945 21.1133 263.789 22.2152 267.987 24.4188C272.185 26.6225 275.495 29.74 277.918 33.7712C280.34 37.8023 281.551 42.6129 281.551 48.2027C281.551 53.7389 280.34 58.5225 277.918 62.5537C275.495 66.5849 272.185 69.7023 267.987 71.906C263.789 74.1097 258.945 75.2116 253.454 75.2116ZM253.454 68.1973C257.33 68.1973 260.774 67.4449 263.789 65.9399C266.802 64.4349 269.198 62.2044 270.974 59.2481C272.75 56.2919 273.639 52.6102 273.639 48.2027C273.639 43.7953 272.75 40.1136 270.974 37.1573C269.198 34.2011 266.802 31.9706 263.789 30.4656C260.774 28.9069 257.33 28.1275 253.454 28.1275C249.686 28.1275 246.269 28.9069 243.201 30.4656C240.133 31.9706 237.711 34.2011 235.935 37.1573C234.159 40.1136 233.27 43.7953 233.27 48.2027C233.27 52.6102 234.159 56.2919 235.935 59.2481C237.711 62.2044 240.133 64.4349 243.201 65.9399C246.269 67.4449 249.686 68.1973 253.454 68.1973ZM342.012 56.4263C341.527 60.35 340.181 63.7093 337.975 66.5042C335.822 69.2992 332.996 71.4491 329.498 72.9541C325.998 74.4591 322.016 75.2116 317.549 75.2116C313.512 75.2116 309.798 74.5934 306.407 73.3572C303.069 72.121 300.163 70.3473 297.688 68.0361C295.211 65.7248 293.274 62.903 291.875 59.5706C290.475 56.1844 289.776 52.3952 289.776 48.2027C289.776 43.9565 290.475 40.1672 291.875 36.8348C293.274 33.5024 295.211 30.6806 297.688 28.3694C300.163 26.0045 303.069 24.2038 306.407 22.9676C309.798 21.7314 313.512 21.1133 317.549 21.1133C322.07 21.1133 326.079 21.8927 329.579 23.4514C333.077 24.9564 335.902 27.1332 338.056 29.9819C340.262 32.7768 341.608 36.1361 342.093 40.0598H334.665C333.965 37.5336 332.808 35.3836 331.193 33.6099C329.579 31.8362 327.613 30.4924 325.3 29.5787C322.985 28.6113 320.401 28.1275 317.549 28.1275C313.888 28.1275 310.551 28.9069 307.538 30.4656C304.523 32.0243 302.1 34.2817 300.271 37.238C298.495 40.1942 297.607 43.8491 297.607 48.2027C297.607 52.5026 298.495 56.1576 300.271 59.1675C302.1 62.1237 304.523 64.3812 307.538 65.9399C310.551 67.4449 313.888 68.1973 317.549 68.1973C320.401 68.1973 322.958 67.7404 325.219 66.8267C327.532 65.913 329.498 64.5693 331.113 62.7956C332.727 61.0218 333.91 58.8988 334.665 56.4263H342.012ZM378.343 75.2116C372.906 75.2116 368.062 74.1097 363.811 71.906C359.612 69.7023 356.302 66.5849 353.88 62.5537C351.511 58.5225 350.328 53.7389 350.328 48.2027C350.328 42.6129 351.511 37.8023 353.88 33.7712C356.302 29.74 359.612 26.6225 363.811 24.4188C368.062 22.2152 372.906 21.1133 378.343 21.1133C383.833 21.1133 388.677 22.2152 392.876 24.4188C397.074 26.6225 400.384 29.74 402.806 33.7712C405.228 37.8023 406.439 42.6129 406.439 48.2027C406.439 53.7389 405.228 58.5225 402.806 62.5537C400.384 66.5849 397.074 69.7023 392.876 71.906C388.677 74.1097 383.833 75.2116 378.343 75.2116ZM378.343 68.1973C382.218 68.1973 385.662 67.4449 388.677 65.9399C391.691 64.4349 394.087 62.2044 395.863 59.2481C397.639 56.2919 398.527 52.6102 398.527 48.2027C398.527 43.7953 397.639 40.1136 395.863 37.1573C394.087 34.2011 391.691 31.9706 388.677 30.4656C385.662 28.9069 382.218 28.1275 378.343 28.1275C374.575 28.1275 371.158 28.9069 368.09 30.4656C365.022 31.9706 362.6 34.2011 360.823 37.1573C359.047 40.1136 358.159 43.7953 358.159 48.2027C358.159 52.6102 359.047 56.2919 360.823 59.2481C362.6 62.2044 365.022 64.4349 368.09 65.9399C371.158 67.4449 374.575 68.1973 378.343 68.1973ZM416.925 74.3247V22.0001H443.891C447.658 22.0001 450.887 22.5645 453.579 23.6932C456.324 24.7682 458.423 26.4344 459.876 28.6919C461.33 30.8955 462.056 33.7174 462.056 37.1573C462.056 39.5222 461.653 41.5378 460.845 43.2041C460.091 44.8166 459.041 46.1603 457.697 47.2353C456.351 48.3102 454.762 49.1434 452.933 49.7346C451.103 50.3258 449.139 50.7021 447.039 50.8633L446.474 50.3796C449.649 50.487 452.314 50.8365 454.467 51.4277C456.619 52.0189 458.262 53.0939 459.392 54.6526C460.575 56.1576 461.168 58.4151 461.168 61.425V74.3247H453.337V61.6668C453.337 59.5706 452.986 57.9313 452.287 56.7488C451.587 55.5663 450.376 54.7332 448.654 54.2495C446.931 53.7657 444.509 53.5239 441.388 53.5239H424.676V74.3247H416.925ZM424.676 46.7515H443.891C447.335 46.7515 449.918 45.8915 451.641 44.1716C453.418 42.4516 454.306 40.1942 454.306 37.3992C454.306 34.7118 453.418 32.6424 451.641 31.1912C449.918 29.74 447.335 29.0144 443.891 29.0144H424.676V46.7515ZM481.128 51.6695V67.3911H514.875V74.3247H473.377V22.0001H514.795V28.9337H481.128V44.8972H508.659V51.6695H481.128Z" fill="black"></path>
</svg>
