
<svg width="1800" height="800" viewBox="0 0 1800 800" fill="none" xmlns="http://www.w3.org/2000/svg">
<path d="M536 341.8L522.8 372.4C511.2 399.467 502.067 421.133 495.4 437.4C488.733 453.667 482.6 470.2 477 487H417.2C411.733 470.467 405.667 454.133 399 438C392.467 421.733 383.667 400.933 372.6 375.6C370.733 371.333 365.867 360.067 358 341.8H413.6C417.6 354.733 423.533 371.333 431.4 391.6C438.333 409.467 443.933 424.933 448.2 438C451 428.8 454.333 419 458.2 408.6C462.2 398.067 464.6 391.667 465.4 389.4C473.133 369 478.8 353.133 482.4 341.8H536Z" fill="#999"/>
<path d="M593.864 450.4C644.531 450.133 681.264 449.4 704.064 448.2C703.131 453.667 702.531 459.333 702.264 465.2C702.131 470.933 702.064 478.2 702.064 487H546.664C547.731 461.133 548.264 436.933 548.264 414.4C548.264 391.867 547.731 367.667 546.664 341.8H702.064V378H593.864V397.2C600.264 397.333 609.731 397.4 622.264 397.4C643.464 397.4 665.397 397 688.064 396.2V430.6C665.397 429.8 643.464 429.4 622.264 429.4C609.731 429.4 600.264 429.467 593.864 429.6V450.4Z" fill="#999"/>
<path d="M720.102 469.8C724.635 463 728.368 456.667 731.302 450.8C734.368 444.933 737.302 438.133 740.102 430.4C749.568 435.867 760.568 440.133 773.102 443.2C785.635 446.267 797.302 447.8 808.102 447.8C819.168 447.8 826.968 446.867 831.502 445C836.035 443 838.302 440.867 838.302 438.6C838.302 430.467 825.902 426.4 801.102 426.4C773.902 426.4 754.168 423.6 741.902 418C729.635 412.267 723.502 403.067 723.502 390.4C723.502 372.4 730.968 359.133 745.902 350.6C760.835 342.067 780.235 337.8 804.102 337.8C817.968 337.8 832.168 339.6 846.702 343.2C861.368 346.667 874.568 351.467 886.302 357.6C882.435 366.4 878.368 377.133 874.102 389.8C873.302 392.467 872.635 394.467 872.102 395.8C865.302 390.333 855.035 385.8 841.302 382.2C827.568 378.467 815.435 376.6 804.902 376.6C792.235 376.6 783.702 377.467 779.302 379.2C774.902 380.8 772.702 383.2 772.702 386.4C772.702 389.6 775.702 392.2 781.702 394.2C787.835 396.067 796.635 397 808.102 397C836.368 397 856.902 400.267 869.702 406.8C882.502 413.2 888.902 423.067 888.902 436.4C888.902 455.067 882.102 468.533 868.502 476.8C854.902 484.933 834.302 489 806.702 489C791.902 489 776.835 487.4 761.502 484.2C746.168 480.867 732.368 476.067 720.102 469.8Z" fill="white"/>
<path d="M1074.86 341.8L1071.06 347.6C1056.79 369.733 1044.53 389.333 1034.26 406.4C1024.13 423.333 1015.66 438.933 1008.86 453.2V487H956.659V449.8C951.726 439.8 945.926 429.533 939.259 419C932.593 408.333 923.126 393.733 910.859 375.2C901.259 361.067 893.926 349.933 888.859 341.8H944.859C948.859 349.933 955.393 362 964.459 378C973.526 394.267 979.726 405.733 983.059 412.4C987.726 402.667 993.993 390.733 1001.86 376.6C1011.06 360.067 1017.26 348.467 1020.46 341.8H1074.86Z" fill="white"/>
<path d="M1253.33 342C1252.4 364.533 1251.93 388.667 1251.93 414.4C1251.93 440.267 1252.4 464.467 1253.33 487H1181.73L1133.33 377.8L1136.93 487H1085.53C1086.6 461.133 1087.13 436.933 1087.13 414.4C1087.13 392 1086.6 367.867 1085.53 342H1159.13L1207.73 454.2L1204.33 342H1253.33Z" fill="white"/>
<path d="M1357.32 489C1327.19 489 1304.99 482.6 1290.72 469.8C1276.45 457 1269.32 438.733 1269.32 415C1269.32 391.133 1276.45 372.267 1290.72 358.4C1304.99 344.533 1327.19 337.6 1357.32 337.6C1399.45 337.6 1427.65 352.067 1441.92 381C1429.92 385.133 1415.85 391.333 1399.72 399.6C1395.85 392.133 1389.72 386.6 1381.32 383C1373.05 379.4 1364.59 377.6 1355.92 377.6C1343.12 377.6 1333.59 381 1327.32 387.8C1321.05 394.467 1317.92 402.733 1317.92 412.6C1317.92 423.267 1321.25 432 1327.92 438.8C1334.72 445.467 1345.05 448.8 1358.92 448.8C1369.99 448.8 1378.79 447 1385.32 443.4C1391.85 439.667 1396.65 433.8 1399.72 425.8C1410.65 431.667 1424.65 438.267 1441.72 445.6C1435.05 461.733 1423.92 473 1408.32 479.4C1392.72 485.8 1375.72 489 1357.32 489Z" fill="white"/>
</svg>
