<svg width="103" height="32" viewBox="0 0 103 32" fill="#000" xmlns="http://www.w3.org/2000/svg">
    <g clip-path="url(#a)" fill="white">
        <path d="M40.372 16.074c.775-.44 1.395-.988 1.847-1.634a4.269 4.269 0 0 0 .777-2.496c0-1.722-.644-3.067-1.913-3.996-1.254-.92-2.979-1.385-5.129-1.385H28.18v19.951h8.085c2.264 0 4.077-.526 5.388-1.565 1.321-1.048 1.992-2.515 1.992-4.362 0-1.125-.316-2.092-.937-2.875-.557-.7-1.342-1.25-2.336-1.638Zm-7.985-5.915h3.229c1.013 0 1.777.196 2.274.583.49.38.73.882.73 1.53 0 .65-.24 1.176-.73 1.559-.497.386-1.261.582-2.274.582h-3.229v-4.254Zm6.079 12.083c-.56.449-1.415.676-2.54.676h-3.539v-4.882h3.54c1.124 0 1.98.22 2.542.65.557.43.827.997.827 1.736 0 .778-.271 1.373-.83 1.82ZM49.33 11.595h-4.236v14.918h4.235V11.595Zm41.831 2.245a6.832 6.832 0 0 0-2.497-1.86c-.986-.437-2.095-.659-3.294-.659-1.47 0-2.796.334-3.943.992a7.182 7.182 0 0 0-2.71 2.726c-.651 1.15-.98 2.482-.98 3.961 0 1.48.32 2.9.95 4.067a6.726 6.726 0 0 0 2.7 2.73c1.157.639 2.516.963 4.04.963 1.87 0 3.457-.47 4.72-1.399 1.215-.893 2.05-2.152 2.506-3.73h-4.264c-.224.537-.54.994-.993 1.316-.535.38-1.226.572-2.054.572-.718 0-1.334-.174-1.83-.518-.497-.345-.877-.853-1.127-1.514a5.795 5.795 0 0 1-.319-1.346h10.661l.021-.132c.19-1.203.142-2.343-.144-3.388a7.286 7.286 0 0 0-1.443-2.782Zm-9.027 3.54a6.1 6.1 0 0 1 .265-.908c.26-.67.635-1.185 1.116-1.529.479-.344 1.075-.517 1.771-.517.873 0 1.59.283 2.13.84.513.53.803 1.254.865 2.113h-6.147ZM49.418 6.563h-4.412v3.596h4.412V6.563Zm23.192 6.725a5.28 5.28 0 0 0-1.75-1.39c-.79-.383-1.715-.577-2.749-.577-1.265 0-2.4.313-3.37.927-.97.615-1.74 1.483-2.285 2.579-.545 1.094-.821 2.378-.821 3.818s.29 2.649.864 3.75c.575 1.105 1.372 1.985 2.369 2.617.998.633 2.137.955 3.385.955.942 0 1.803-.204 2.557-.607a4.563 4.563 0 0 0 1.49-1.255v1.624c0 1.007-.264 1.78-.784 2.295-.522.515-1.316.775-2.36.775-.9 0-1.607-.204-2.102-.607-.405-.33-.759-.762-.841-1.678h-4.084c.038 1.282.414 2.145.946 2.902.595.847 1.433 1.51 2.493 1.968 1.048.452 2.266.682 3.616.682 2.268 0 4.073-.57 5.365-1.693 1.3-1.129 1.958-2.71 1.958-4.698v-14.08h-3.896v1.693Zm-.745 7.339a3.06 3.06 0 0 1-1.128 1.29c-.48.3-1.06.454-1.722.454-.96 0-1.705-.327-2.28-.998-.574-.669-.865-1.587-.865-2.729 0-1.142.29-2.06.864-2.729.569-.662 1.336-.998 2.28-.998.945 0 1.779.34 2.366 1.013.592.679.892 1.601.892 2.74 0 .739-.137 1.396-.407 1.956Zm31.137-5.463v-3.568h-3.057V6.563h-4.207v5.033h-2.611v3.568h2.611v5.84c0 3.247.64 5.633 4.626 5.559l2.503-.05V23.17h-1.242c-1.772 0-1.673-1.033-1.673-2.952l-.007-5.053h3.057Zm-42.396 0v-3.568h-3.057V6.563h-4.207v5.033H50.73v3.568h2.61v5.84c0 3.247.64 5.633 4.627 5.559l2.502-.05V23.17H59.23c-1.772 0-1.674-1.033-1.674-2.952l-.007-5.053h3.057ZM10.56 10.159h6.353l6.499 6.457c.423.42.425 1.104.004 1.526l-8.335 8.377H8.538l1.979-1.924 7.264-7.218-7.172-7.219"/>
        <path d="M13.17 17.36H6.819l-6.5-6.457a1.078 1.078 0 0 1-.004-1.526L8.65 1h6.544l-1.978 1.924-7.265 7.218 7.173 7.218"/>
    </g>
    <defs>
        <clipPath id="a">
            <path fill="#FFF" d="M0 0h103v32H0z"/>
        </clipPath>
    </defs>
</svg>