<svg viewBox="0 0 146 21" xmlns="http://www.w3.org/2000/svg" class="css-1ntheqg" fill="#FFF" opacity="0.8">
    <g>
        <path d="M4.96519 4.95264C6.49602 3.45285 8.52424 2.62572 10.6757 2.62572H19.5483C20.2678 2.62572 20.8512 2.03822 20.8512 1.31358C20.8512 0.588947 20.2678 0 19.5483 0H10.6757C7.84052 0 5.16729 1.09128 3.14768 3.07176C1.11803 5.0609 0 7.69962 0 10.5C0 13.3004 1.11803 15.9391 3.14768 17.9282C5.16729 19.9087 7.84196 20.9986 10.6757 20.9986H19.5483C20.2678 20.9986 20.8512 20.4111 20.8512 19.6864C20.8512 18.9618 20.2678 18.3743 19.5483 18.3743H10.6757C8.52424 18.3743 6.49602 17.5486 4.96519 16.0474C3.44438 14.5562 2.60586 12.5859 2.60586 10.5C2.60586 8.41415 3.44295 6.44377 4.96519 4.95264Z">

        </path>
        <path d="M66.3764 0.00435501C65.6841 0.0491034 65.1595 0.659703 65.1595 1.35836C65.1595 3.45864 65.1595 9.96016 65.1595 13.732C65.1595 14.7612 63.9239 15.2751 63.2015 14.5476L49.1401 0.385438C48.6944 -0.0634893 47.9777 -0.135664 47.4416 0.258411C47.1019 0.508136 46.9141 0.919532 46.9141 1.34392V19.6431C46.9141 20.3418 47.4373 20.9524 48.1311 20.9971C48.8907 21.0462 49.5214 20.4414 49.5214 19.6879V7.26948C49.5214 6.24026 50.757 5.72494 51.4794 6.45246L65.5422 20.6146C65.7916 20.8658 66.1241 20.9986 66.4638 20.9986C66.6874 20.9986 66.9125 20.9408 67.1174 20.821C67.5303 20.5814 67.7668 20.1209 67.7668 19.6417V1.31361C67.7668 0.560102 67.1361 -0.0461674 66.3764 0.00435501Z">

        </path>
        <path d="M121.153 0.00434006C120.46 0.0490885 119.936 0.659688 119.936 1.35834C119.936 3.45863 119.936 9.96014 119.936 13.732C119.936 14.7612 118.7 15.2751 117.978 14.5476L103.936 0.405632C103.638 0.105385 103.218 -0.0519563 102.801 0.0144445C102.145 0.116933 101.69 0.678453 101.69 1.31359V19.6417C101.69 20.3403 102.213 20.9509 102.907 20.9957C103.667 21.0448 104.298 20.4399 104.298 19.6864V7.26946C104.298 6.24025 105.533 5.72492 106.256 6.45244L120.318 20.6146C120.568 20.8658 120.9 20.9986 121.24 20.9986C121.464 20.9986 121.689 20.9408 121.894 20.821C122.306 20.5814 122.543 20.1209 122.543 19.6417V1.31359C122.543 0.560087 121.912 -0.0461823 121.153 0.00434006Z">

        </path>
        <path d="M89.5467 -0.5H71.3473C70.6535 -0.5 70.0472 0.0268765 70.0028 0.725529C69.954 1.49058 70.5546 2.12572 71.3028 2.12572H78.4052C78.8008 2.12572 79.1219 2.44907 79.1219 2.84747V19.1417C79.1219 19.8403 79.645 20.4509 80.3388 20.4957C81.0985 20.5447 81.7291 19.9399 81.7291 19.1864V2.84747C81.7291 2.44907 82.0502 2.12572 82.4458 2.12572H89.5037C90.1975 2.12572 90.8038 1.59885 90.8482 0.900192C90.897 0.135139 90.2964 -0.5 89.5482 -0.5L89.5467 -0.5Z">

        </path>
        <path d="M95.1183 0C94.3987 0 93.8154 0.587503 93.8154 1.31214V19.6864C93.8154 20.4111 94.3987 20.9986 95.1183 20.9986C95.8378 20.9986 96.4212 20.4111 96.4212 19.6864V1.31358C96.4212 0.588947 95.8378 0.0014435 95.1183 0.0014435V0Z">

        </path>
        <path d="M33.8834 0C31.1026 0 28.4824 1.12593 26.5073 3.16992C24.5407 5.20381 23.4585 7.89593 23.4585 10.7512V19.6864C23.4585 20.4111 24.0419 20.9986 24.7614 20.9986C25.481 20.9986 26.0644 20.4111 26.0644 19.6864V10.7512C26.0644 8.58448 26.8842 6.54193 28.3749 5.00028C29.8556 3.46872 31.8122 2.62428 33.8834 2.62428C35.9546 2.62428 37.9111 3.46728 39.3918 5.00028C40.8811 6.54193 41.7024 8.58448 41.7024 10.7512V19.6864C41.7024 20.4111 42.2858 20.9986 43.0053 20.9986C43.7249 20.9986 44.3083 20.4111 44.3083 19.6864V10.7512C44.3083 7.89593 43.2261 5.20381 41.2595 3.16992C39.2843 1.12737 36.6641 0 33.8834 0Z">

        </path>
        <path d="M33.8834 10.5C33.1638 10.5 32.5804 11.0875 32.5804 11.8121V19.6864C32.5804 20.4111 33.1638 20.9986 33.8834 20.9986C34.6029 20.9986 35.1863 20.4111 35.1863 19.6864V11.8121C35.1863 11.0875 34.6029 10.5 33.8834 10.5Z"
              fill="var(--chakra-colors-orange-500)">

        </path>
        <path d="M142.951 3.16992C140.976 1.12737 138.356 0 135.575 0C132.794 0 130.174 1.12593 128.199 3.16992C126.232 5.20381 125.15 7.89593 125.15 10.7512V19.6864C125.15 20.4111 125.734 20.9986 126.453 20.9986C127.173 20.9986 127.756 20.4111 127.756 19.6864V10.7512C127.756 8.58448 128.576 6.54193 130.067 5.00028C131.547 3.46872 133.504 2.62428 135.575 2.62428C137.646 2.62428 139.603 3.46728 141.084 5.00028C142.573 6.54193 143.394 8.58448 143.394 10.7512V19.6864C143.394 20.4111 143.977 20.9986 144.697 20.9986C145.417 20.9986 146 20.4111 146 19.6864V10.7512C146 7.89593 144.918 5.20381 142.951 3.16992Z">

        </path>
        <path d="M135.575 10.5C134.856 10.5 134.272 11.0875 134.272 11.8121V19.6864C134.272 20.4111 134.856 20.9986 135.575 20.9986C136.295 20.9986 136.878 20.4111 136.878 19.6864V11.8121C136.878 11.0875 136.295 10.5 135.575 10.5Z"
              fill="var(--chakra-colors-orange-500)">

        </path>
    </g>
</svg>