<svg xmlns="http://www.w3.org/2000/svg" width="136" height="24" fill="none" viewBox="0 0 136 24">
  <path fill="#E5E9EB" d="M19.998 19.198c-.08.055-.162.108-.246.157L17 20.958 6.209 14.673V9.32l10.786-6.28 2.757 1.606c.097.056.19.117.281.181l-7.708 4.481v-.01l-3.089 1.806v1.838l3.09 1.803V12.92l9.247-5.386c.01.105.014.211.014.318v3.242l-6.158 3.605v1.85l4.57 2.65z"/>
  <path fill="#E5E9EB" d="M13.906 1.24L12.629.496a3.642 3.642 0 0 0-3.67 0L1.834 4.645A3.708 3.708 0 0 0 0 7.85v8.298c0 1.322.7 2.545 1.835 3.206l7.123 4.149a3.643 3.643 0 0 0 3.67 0l1.283-.747L3.12 16.472V7.524l.004.003-.004-.005L13.906 1.24z"/>
  <path fill="#E5E9EB" d="M93.836 17.867V6.282h1.983v9.729h5.362v1.856h-7.345zm11.185-2.635l-1.177 2.635h-2.118l5.177-11.585h2.118l5.177 11.585h-2.118l-1.176-2.635h-5.883zm5.076-1.807l-2.135-4.773-2.134 4.773h4.269zm10.879 4.442h-5.144V6.282h4.572c.796 0 1.479.094 2.051.282.583.187 1.014.442 1.294.762.538.597.807 1.27.807 2.022 0 .906-.291 1.58-.874 2.022a5.787 5.787 0 0 1-.437.299c-.079.033-.219.093-.42.182.728.154 1.305.48 1.731.978.437.486.656 1.094.656 1.823 0 .807-.281 1.52-.841 2.138-.661.718-1.793 1.077-3.395 1.077zm-3.16-6.779h2.521c1.434 0 2.151-.48 2.151-1.442 0-.552-.173-.95-.521-1.193-.347-.243-.885-.365-1.613-.365h-2.538v3zm0 4.973h3.109c.729 0 1.283-.11 1.664-.332.393-.232.589-.663.589-1.292 0-1.028-.835-1.542-2.505-1.542h-2.857v3.166zm13.431-8.254c-.572 0-1.042.116-1.412.348-.37.232-.555.585-.555 1.06 0 .465.185.824.555 1.078.37.243 1.154.508 2.353.795 1.21.288 2.118.691 2.723 1.21.617.52.925 1.288.925 2.304 0 1.006-.387 1.823-1.16 2.453-.773.63-1.787.945-3.042.945-1.838 0-3.469-.624-4.892-1.873l1.244-1.475c1.188 1.017 2.42 1.525 3.698 1.525.639 0 1.143-.133 1.513-.398.381-.276.571-.635.571-1.077 0-.453-.179-.801-.538-1.044-.347-.255-.952-.481-1.815-.68-.863-.21-1.518-.398-1.967-.564a4.632 4.632 0 0 1-1.193-.68c-.695-.518-1.042-1.314-1.042-2.386s.392-1.895 1.176-2.47c.796-.585 1.777-.878 2.942-.878.751 0 1.496.122 2.236.365a5.876 5.876 0 0 1 1.916 1.027l-1.059 1.475c-.348-.309-.818-.563-1.412-.762a5.532 5.532 0 0 0-1.765-.298zM36.2 6c-1.763 0-3.253.57-4.439 1.722l-.001.001c-1.174 1.153-1.76 2.6-1.76 4.308 0 1.705.573 3.143 1.73 4.277v.001C32.896 17.439 34.356 18 36.078 18c1.758 0 3.258-.687 4.473-2.034l.284-.314-1.77-1.815-.322.302c-.466.437-.897.743-1.292.932-.377.17-.846.264-1.42.264-.877 0-1.633-.312-2.287-.956-.636-.646-.956-1.44-.956-2.41 0-.98.325-1.752.963-2.354l.002-.003c.646-.619 1.442-.932 2.417-.932.566 0 1.034.09 1.415.254l.003.002c.393.165.833.47 1.32.937l.333.32L40.98 8.29l-.276-.304C39.502 6.667 37.99 6 36.199 6z"/>
  <path fill="#E5E9EB" fill-rule="evenodd" d="M71.343 6c-1.706 0-3.16.573-4.332 1.723-1.174 1.141-1.76 2.578-1.76 4.277 0 1.69.586 3.126 1.76 4.277l.001.001c1.172 1.14 2.626 1.707 4.33 1.707 1.705 0 3.159-.567 4.33-1.707l.002-.001c1.174-1.151 1.76-2.587 1.76-4.277 0-1.699-.586-3.136-1.76-4.277C74.502 6.573 73.048 6 71.342 6zm-3.336 6c0-.97.32-1.777.962-2.446.65-.667 1.432-.997 2.374-.997.941 0 1.718.33 2.357.996l.002.002c.651.67.976 1.476.976 2.445 0 .958-.324 1.759-.976 2.43l-.002.002c-.64.666-1.416.995-2.358.995-.941 0-1.723-.329-2.373-.996-.642-.67-.962-1.472-.962-2.431z" clip-rule="evenodd"/>
  <path fill="#E5E9EB" d="M82.576 6c-1.142 0-2.135.292-2.951.901-.844.627-1.255 1.53-1.255 2.646 0 1.091.353 1.976 1.123 2.563.354.284.754.514 1.199.692l.01.003c.433.163 1.05.342 1.843.537l.005.001c.777.182 1.252.375 1.49.552l.006.005.007.004c.197.136.295.314.295.595 0 .256-.098.456-.336.632-.235.17-.59.281-1.114.281-1.033 0-2.056-.414-3.077-1.3l-.347-.302-1.708 2.054.326.29c1.377 1.225 2.97 1.846 4.76 1.846 1.223 0 2.257-.312 3.062-.977.81-.67 1.221-1.554 1.221-2.616 0-1.033-.312-1.884-.999-2.472-.628-.547-1.534-.942-2.672-1.216a15.387 15.387 0 0 1-1.316-.372c-.343-.117-.562-.22-.682-.298-.207-.147-.309-.337-.309-.624 0-.304.105-.478.297-.601.246-.157.585-.251 1.046-.251.478 0 .966.082 1.464.252.502.17.872.379 1.13.612l.378.34 1.5-2.118-.32-.267a5.78 5.78 0 0 0-1.894-1.032A6.862 6.862 0 0 0 82.576 6zm-37.888.26h-2.71v11.617h2.71v-4.384h4.417v4.384h2.71V6.261h-2.71v4.644h-4.417V6.261z"/>
  <path fill="#E5E9EB" fill-rule="evenodd" d="M60.474 6.26h-2.52l-5.118 11.617h2.917l1.073-2.437h4.777l1.073 2.437h2.917L60.474 6.261zm-2.515 6.607l1.255-2.846 1.255 2.846h-2.51z" clip-rule="evenodd"/>
</svg>
