<svg width="160" height="72" viewBox="0 0 160 72" fill="none" xmlns="http://www.w3.org/2000/svg">
<rect width="160" height="72" rx="12" fill="white"/>
<path d="M50.1738 25.9998V18.2422H53.2344C53.8228 18.2422 54.3241 18.3546 54.7382 18.5793C55.1524 18.8015 55.468 19.1109 55.6852 19.5073C55.9049 19.9013 56.0147 20.3558 56.0147 20.871C56.0147 21.3861 55.9036 21.8407 55.6814 22.2346C55.4592 22.6286 55.1372 22.9354 54.7155 23.1551C54.2963 23.3748 53.7887 23.4846 53.1928 23.4846H51.242V22.1702H52.9276C53.2433 22.1702 53.5034 22.1159 53.7079 22.0073C53.915 21.8962 54.069 21.7435 54.17 21.549C54.2736 21.352 54.3253 21.126 54.3253 20.871C54.3253 20.6134 54.2736 20.3887 54.17 20.1967C54.069 20.0023 53.915 19.852 53.7079 19.746C53.5008 19.6374 53.2382 19.5831 52.92 19.5831H51.814V25.9998H50.1738Z" fill="#202020"/>
<path d="M59.0501 26.1134C58.4617 26.1134 57.9528 25.9884 57.5235 25.7384C57.0968 25.4859 56.7672 25.1349 56.5349 24.6854C56.3026 24.2333 56.1864 23.7094 56.1864 23.1134C56.1864 22.5124 56.3026 21.9871 56.5349 21.5376C56.7672 21.0856 57.0968 20.7346 57.5235 20.4846C57.9528 20.2321 58.4617 20.1058 59.0501 20.1058C59.6384 20.1058 60.146 20.2321 60.5728 20.4846C61.0021 20.7346 61.3329 21.0856 61.5652 21.5376C61.7975 21.9871 61.9137 22.5124 61.9137 23.1134C61.9137 23.7094 61.7975 24.2333 61.5652 24.6854C61.3329 25.1349 61.0021 25.4859 60.5728 25.7384C60.146 25.9884 59.6384 26.1134 59.0501 26.1134ZM59.0576 24.8634C59.3253 24.8634 59.5488 24.7876 59.7281 24.6361C59.9074 24.4821 60.0425 24.2725 60.1334 24.0073C60.2268 23.7422 60.2735 23.4404 60.2735 23.102C60.2735 22.7637 60.2268 22.4619 60.1334 22.1967C60.0425 21.9316 59.9074 21.722 59.7281 21.5679C59.5488 21.4139 59.3253 21.3369 59.0576 21.3369C58.7874 21.3369 58.5602 21.4139 58.3758 21.5679C58.194 21.722 58.0564 21.9316 57.9629 22.1967C57.872 22.4619 57.8266 22.7637 57.8266 23.102C57.8266 23.4404 57.872 23.7422 57.9629 24.0073C58.0564 24.2725 58.194 24.4821 58.3758 24.6361C58.5602 24.7876 58.7874 24.8634 59.0576 24.8634Z" fill="#202020"/>
<path d="M63.4301 25.9998L61.8467 20.1816H63.4793L64.3808 24.0907H64.4339L65.3732 20.1816H66.9755L67.9301 24.0679H67.9793L68.8657 20.1816H70.4945L68.9149 25.9998H67.2066L66.2066 22.3407H66.1346L65.1346 25.9998H63.4301Z" fill="#202020"/>
<path d="M73.3262 26.1134C72.7277 26.1134 72.2125 25.9922 71.7807 25.7498C71.3514 25.5048 71.0206 25.1589 70.7883 24.7119C70.556 24.2624 70.4398 23.7308 70.4398 23.1172C70.4398 22.5187 70.556 21.9935 70.7883 21.5414C71.0206 21.0894 71.3476 20.7371 71.7694 20.4846C72.1936 20.2321 72.6911 20.1058 73.2618 20.1058C73.6456 20.1058 74.0029 20.1677 74.3338 20.2914C74.6671 20.4126 74.9575 20.5957 75.205 20.8407C75.455 21.0856 75.6494 21.3937 75.7883 21.7649C75.9272 22.1336 75.9966 22.5654 75.9966 23.0604V23.5036H71.0838V22.5036H74.4777C74.4777 22.2712 74.4272 22.0654 74.3262 21.8861C74.2252 21.7068 74.085 21.5667 73.9057 21.4657C73.729 21.3621 73.5231 21.3104 73.2883 21.3104C73.0434 21.3104 72.8262 21.3672 72.6368 21.4808C72.4499 21.5919 72.3035 21.7422 72.1974 21.9316C72.0913 22.1185 72.037 22.3268 72.0345 22.5566V23.5073C72.0345 23.7952 72.0875 24.044 72.1936 24.2536C72.3022 24.4631 72.455 24.6248 72.6519 24.7384C72.8489 24.852 73.0825 24.9089 73.3527 24.9089C73.532 24.9089 73.6961 24.8836 73.8451 24.8331C73.9941 24.7826 74.1216 24.7068 74.2277 24.6058C74.3338 24.5048 74.4146 24.3811 74.4701 24.2346L75.9625 24.3331C75.8868 24.6917 75.7315 25.0048 75.4966 25.2725C75.2643 25.5376 74.9638 25.7447 74.5951 25.8937C74.229 26.0402 73.806 26.1134 73.3262 26.1134Z" fill="#202020"/>
<path d="M76.5149 25.9998V20.1816H78.0793V21.1967H78.1399C78.246 20.8356 78.424 20.5629 78.674 20.3786C78.924 20.1917 79.2119 20.0982 79.5376 20.0982C79.6184 20.0982 79.7056 20.1033 79.799 20.1134C79.8924 20.1235 79.9745 20.1374 80.0452 20.1551V21.5869C79.9695 21.5642 79.8647 21.544 79.7308 21.5263C79.597 21.5086 79.4745 21.4998 79.3634 21.4998C79.126 21.4998 78.9139 21.5515 78.727 21.6551C78.5427 21.7561 78.3962 21.8975 78.2876 22.0793C78.1816 22.2611 78.1285 22.4707 78.1285 22.7081V25.9998H76.5149Z" fill="#202020"/>
<path d="M82.7254 26.1134C82.1269 26.1134 81.6118 25.9922 81.18 25.7498C80.7507 25.5048 80.4199 25.1589 80.1875 24.7119C79.9552 24.2624 79.839 23.7308 79.839 23.1172C79.839 22.5187 79.9552 21.9935 80.1875 21.5414C80.4199 21.0894 80.7469 20.7371 81.1686 20.4846C81.5928 20.2321 82.0903 20.1058 82.661 20.1058C83.0449 20.1058 83.4022 20.1677 83.733 20.2914C84.0663 20.4126 84.3567 20.5957 84.6042 20.8407C84.8542 21.0856 85.0486 21.3937 85.1875 21.7649C85.3264 22.1336 85.3959 22.5654 85.3959 23.0604V23.5036H80.483V22.5036H83.8769C83.8769 22.2712 83.8264 22.0654 83.7254 21.8861C83.6244 21.7068 83.4842 21.5667 83.305 21.4657C83.1282 21.3621 82.9224 21.3104 82.6875 21.3104C82.4426 21.3104 82.2254 21.3672 82.036 21.4808C81.8491 21.5919 81.7027 21.7422 81.5966 21.9316C81.4906 22.1185 81.4363 22.3268 81.4337 22.5566V23.5073C81.4337 23.7952 81.4868 24.044 81.5928 24.2536C81.7014 24.4631 81.8542 24.6248 82.0512 24.7384C82.2481 24.852 82.4817 24.9089 82.7519 24.9089C82.9312 24.9089 83.0954 24.8836 83.2444 24.8331C83.3933 24.7826 83.5209 24.7068 83.6269 24.6058C83.733 24.5048 83.8138 24.3811 83.8694 24.2346L85.3618 24.3331C85.286 24.6917 85.1307 25.0048 84.8959 25.2725C84.6635 25.5376 84.363 25.7447 83.9944 25.8937C83.6282 26.0402 83.2052 26.1134 82.7254 26.1134Z" fill="#202020"/>
<path d="M88.0581 26.0945C87.6162 26.0945 87.2159 25.9808 86.8573 25.7536C86.5013 25.5238 86.2184 25.1866 86.0088 24.7422C85.8018 24.2952 85.6982 23.7472 85.6982 23.0982C85.6982 22.4316 85.8055 21.8773 86.0202 21.4354C86.2348 20.9909 86.5202 20.6589 86.8763 20.4392C87.2348 20.2169 87.6275 20.1058 88.0543 20.1058C88.38 20.1058 88.6515 20.1614 88.8687 20.2725C89.0884 20.3811 89.2651 20.5174 89.399 20.6816C89.5353 20.8432 89.6389 21.0023 89.7096 21.1589H89.7588V18.2422H91.3687V25.9998H89.7778V25.0679H89.7096C89.6338 25.2296 89.5265 25.3899 89.3876 25.549C89.2513 25.7056 89.0732 25.8356 88.8535 25.9392C88.6364 26.0427 88.3712 26.0945 88.0581 26.0945ZM88.5694 24.8104C88.8295 24.8104 89.0492 24.7397 89.2285 24.5982C89.4103 24.4543 89.5492 24.2536 89.6452 23.996C89.7437 23.7384 89.7929 23.4366 89.7929 23.0907C89.7929 22.7447 89.7449 22.4442 89.649 22.1892C89.553 21.9341 89.4141 21.7371 89.2323 21.5982C89.0505 21.4594 88.8295 21.3899 88.5694 21.3899C88.3043 21.3899 88.0808 21.4619 87.899 21.6058C87.7172 21.7498 87.5795 21.9493 87.4861 22.2043C87.3927 22.4594 87.346 22.7548 87.346 23.0907C87.346 23.4291 87.3927 23.7283 87.4861 23.9884C87.5821 24.246 87.7197 24.448 87.899 24.5945C88.0808 24.7384 88.3043 24.8104 88.5694 24.8104Z" fill="#202020"/>
<path d="M94.1249 25.9998V18.2422H95.7386V21.1589H95.7878C95.8585 21.0023 95.9608 20.8432 96.0946 20.6816C96.231 20.5174 96.4078 20.3811 96.6249 20.2725C96.8446 20.1614 97.1173 20.1058 97.4431 20.1058C97.8673 20.1058 98.2588 20.2169 98.6173 20.4392C98.9759 20.6589 99.2625 20.9909 99.4772 21.4354C99.6918 21.8773 99.7992 22.4316 99.7992 23.0982C99.7992 23.7472 99.6944 24.2952 99.4848 24.7422C99.2777 25.1866 98.9949 25.5238 98.6363 25.7536C98.2802 25.9808 97.8812 26.0945 97.4393 26.0945C97.1262 26.0945 96.8598 26.0427 96.6401 25.9392C96.4229 25.8356 96.2449 25.7056 96.106 25.549C95.9671 25.3899 95.861 25.2296 95.7878 25.0679H95.7158V25.9998H94.1249ZM95.7045 23.0907C95.7045 23.4366 95.7524 23.7384 95.8484 23.996C95.9444 24.2536 96.0833 24.4543 96.2651 24.5982C96.4469 24.7397 96.6679 24.8104 96.928 24.8104C97.1906 24.8104 97.4128 24.7384 97.5946 24.5945C97.7764 24.448 97.9141 24.246 98.0075 23.9884C98.1035 23.7283 98.1514 23.4291 98.1514 23.0907C98.1514 22.7548 98.1047 22.4594 98.0113 22.2043C97.9179 21.9493 97.7802 21.7498 97.5984 21.6058C97.4166 21.4619 97.1931 21.3899 96.928 21.3899C96.6653 21.3899 96.4431 21.4594 96.2613 21.5982C96.082 21.7371 95.9444 21.9341 95.8484 22.1892C95.7524 22.4442 95.7045 22.7447 95.7045 23.0907Z" fill="#202020"/>
<path d="M101.15 28.1816C100.945 28.1816 100.753 28.1652 100.574 28.1323C100.397 28.102 100.251 28.0629 100.135 28.0149L100.498 26.8104C100.688 26.8685 100.858 26.9 101.01 26.9051C101.164 26.9101 101.296 26.8748 101.407 26.799C101.521 26.7232 101.613 26.5945 101.684 26.4126L101.779 26.1664L99.6915 20.1816H101.388L102.593 24.4543H102.654L103.87 20.1816H105.578L103.316 26.6286C103.208 26.9417 103.06 27.2144 102.873 27.4467C102.689 27.6816 102.455 27.8621 102.173 27.9884C101.89 28.1172 101.549 28.1816 101.15 28.1816Z" fill="#202020"/>
<path fill-rule="evenodd" clip-rule="evenodd" d="M62.3553 32.8408C61.173 32.5029 60.0751 32.334 58.9769 32.334C56.9499 32.334 55.092 32.8408 53.4028 33.6854C51.7135 34.6144 50.4466 35.8814 49.5175 37.5706C48.5883 39.2598 48.166 41.118 48.166 43.3139C48.166 45.5099 48.6729 47.3681 49.602 49.0573C50.5308 50.7465 51.8822 52.0135 53.4869 52.9425C55.092 53.8716 56.8653 54.3784 58.8927 54.3784C60.7506 54.3784 62.4399 54.0405 63.9604 53.1959C65.4806 52.4357 66.6629 51.2533 67.5921 49.6485C68.5212 48.0437 68.9435 46.1856 68.9435 43.9896V43.0606L68.9439 42.4852C68.944 42.2899 68.7856 42.1315 68.5903 42.1315H59.836C59.6406 42.1315 59.4823 42.2899 59.4823 42.4852V45.5786C59.4823 45.7739 59.6406 45.9323 59.836 45.9323H63.8316C63.9757 45.9323 64.0864 46.0604 64.0604 46.2022C63.9767 46.6583 63.8588 47.0725 63.7068 47.4526C63.369 48.3816 62.7776 48.9728 61.933 49.4796C61.173 49.9019 60.1597 50.1553 58.8927 50.1553C57.879 50.1553 56.8653 49.8175 56.0207 49.3107C55.092 48.7195 54.4161 47.9593 53.9092 46.9458C53.4028 45.9323 53.1491 44.7498 53.1491 43.3984C53.1491 42.047 53.4028 40.8646 53.9092 39.851C54.4161 38.8375 55.092 37.9929 56.0207 37.4861C56.9499 36.8949 57.9636 36.6415 59.0614 36.6415C60.0751 36.6415 61.0884 36.8949 61.933 37.3172C62.6837 37.6926 63.368 38.3348 63.9258 39.1254C64.041 39.2886 64.2658 39.3356 64.4308 39.223L67.573 37.0806C67.7264 36.976 67.7736 36.77 67.6725 36.6143C67.0952 35.7245 66.3226 34.9734 65.4806 34.3611C64.4669 33.6854 63.5381 33.1786 62.3553 32.8408ZM89.4072 33.5246L93.1762 32.5319C93.4005 32.4729 93.62 32.642 93.62 32.874V53.6868C93.62 53.8822 93.4616 54.0405 93.2663 54.0405H89.4973C89.3019 54.0405 89.1436 53.8822 89.1436 53.6868V33.8667C89.1436 33.706 89.2518 33.5655 89.4072 33.5246ZM133.869 42.3007C134.46 41.9628 135.052 41.7939 135.727 41.7939C136.488 41.7939 137.079 42.0473 137.586 42.3007C138.092 42.5541 138.515 43.0608 138.852 43.7365C139.19 44.4122 139.359 45.1724 139.359 46.1014C139.359 47.0305 139.19 47.7906 138.852 48.4663C138.599 49.142 138.177 49.6488 137.586 49.9866C137.079 50.3245 136.403 50.4934 135.727 50.4934C135.052 50.4934 134.376 50.3245 133.869 49.9866C133.362 49.6488 132.94 49.142 132.602 48.4663C132.264 47.7906 132.096 47.0305 132.096 46.1014C132.096 45.1724 132.264 44.4122 132.602 43.7365C132.856 43.1453 133.278 42.6385 133.869 42.3007ZM139.95 38.8378C138.768 38.1621 137.332 37.8242 135.727 37.8242C134.207 37.8242 132.771 38.1621 131.504 38.8378C130.237 39.5135 129.308 40.527 128.548 41.7939C127.788 43.0608 127.45 44.4967 127.45 46.1014C127.45 47.7062 127.872 49.142 128.548 50.409C129.224 51.6759 130.237 52.6894 131.504 53.3651C132.771 54.0408 134.207 54.3786 135.727 54.3786C137.248 54.3786 138.684 54.0408 139.95 53.3651C141.217 52.6894 142.146 51.6759 142.907 50.409C143.667 49.142 144.005 47.7062 144.005 46.1014C144.005 44.4967 143.582 43.0608 142.907 41.7939C142.231 40.527 141.217 39.5135 139.95 38.8378ZM107.982 52.4302C108.016 52.3766 108.113 52.4012 108.113 52.4644V53.6866C108.113 53.8819 108.271 54.0403 108.466 54.0403H112.235C112.431 54.0403 112.589 53.8819 112.589 53.6866V38.6842C112.589 38.4889 112.431 38.3305 112.235 38.3305H108.466C108.271 38.3305 108.113 38.4889 108.113 38.6842V40.0437C108.113 40.1598 107.959 40.2085 107.888 40.1164C107.651 39.8081 107.387 39.5216 107.099 39.2596C106.17 38.3305 104.903 37.9082 103.383 37.9082C102.032 37.9082 100.849 38.2461 99.7509 39.0062C98.7374 39.6819 97.8928 40.6955 97.3016 41.9624C96.7105 43.2293 96.457 44.6651 96.457 46.1854C96.457 47.7057 96.7105 49.1416 97.3016 50.4085C97.8928 51.6754 98.6531 52.6045 99.7509 53.3646C100.765 54.1248 102.032 54.4626 103.383 54.4626C104.988 54.4626 106.17 53.9558 107.184 53.2801C107.57 53.0223 107.837 52.663 107.982 52.4302ZM106.423 49.9017C105.832 50.2396 105.241 50.4085 104.565 50.4085C103.89 50.4085 103.298 50.2396 102.707 49.9017C102.2 49.5638 101.778 49.0571 101.44 48.3814C101.187 47.7057 101.018 46.9456 101.018 46.1009C101.018 45.2563 101.102 44.5807 101.44 43.9049C101.778 43.3137 102.2 42.8069 102.707 42.4691C103.298 42.1313 103.89 41.9624 104.565 41.9624C105.241 41.9624 105.917 42.1313 106.423 42.4691C106.93 42.8069 107.352 43.2292 107.69 43.9049C107.944 44.4962 108.113 45.2563 108.113 46.1009C108.113 46.9456 108.028 47.7057 107.69 48.3814C107.352 49.0571 106.93 49.5638 106.423 49.9017ZM122.417 41.7939C122.352 41.7939 122.299 41.8467 122.299 41.9118V47.9595C122.299 49.3954 122.891 50.1555 124.073 50.1555H125.409C125.604 50.1555 125.762 50.3139 125.762 50.5093V53.6871C125.762 53.8824 125.604 54.0408 125.409 54.0408H123.482C121.708 54.0408 120.272 53.534 119.343 52.5204C118.33 51.507 117.823 50.0711 117.823 48.2129V41.9118C117.823 41.8467 117.77 41.7939 117.705 41.7939H115.092C114.849 41.7939 114.679 41.5557 114.757 41.3262L115.695 38.5707C115.744 38.4274 115.878 38.331 116.03 38.331H117.705C117.77 38.331 117.823 38.2782 117.823 38.2131V33.9848C117.823 33.8242 117.931 33.6837 118.087 33.6428L122.004 32.6111C122.153 32.5717 122.299 32.6845 122.299 32.8392V38.2131C122.299 38.2782 122.352 38.331 122.417 38.331H125.504C125.747 38.331 125.917 38.5692 125.839 38.7987L124.901 41.5542C124.852 41.6975 124.717 41.7939 124.566 41.7939H122.417ZM78.8741 37.8242C80.3942 37.8242 81.6612 38.1621 82.7592 38.8378C83.8572 39.5134 84.7862 40.527 85.3774 41.7939C86.0531 43.0608 86.3065 44.4967 86.3065 46.1014V46.8457C86.3065 47.0411 86.1482 47.1994 85.9528 47.1994H75.929C75.786 47.1994 75.6756 47.3258 75.7002 47.4667C75.7739 47.8894 75.8779 48.2608 76.0021 48.5508C76.3403 49.2265 76.7626 49.7333 77.269 49.9866C77.7759 50.24 78.4518 50.4934 79.2964 50.4934C80.0565 50.4934 80.8165 50.3245 81.3234 50.0711C81.812 49.8617 82.2428 49.4792 82.616 49.019C82.7444 48.8607 82.9773 48.8281 83.1356 48.9565L85.7042 51.039C85.8519 51.1588 85.8791 51.3745 85.7588 51.5218C85.0388 52.4022 84.1728 53.073 83.097 53.534C81.9146 54.0408 80.6475 54.2941 79.2964 54.2941C77.6913 54.2941 76.2557 53.9563 74.9888 53.2806C73.7219 52.6049 72.7927 51.5914 72.1172 50.3245C71.4413 49.0575 71.1035 47.6217 71.1035 46.017C71.1035 44.4122 71.4413 42.9764 72.1172 41.7095C72.7927 40.4425 73.7219 39.5134 74.9043 38.7533C76.0866 38.1621 77.3536 37.8242 78.8741 37.8242ZM76.0285 44.2433C75.8797 44.2433 75.7679 44.1071 75.8031 43.9626C75.9513 43.355 76.1662 42.8574 76.4244 42.4696C76.9313 41.7094 77.7759 41.2872 78.8741 41.2872C79.8874 41.2872 80.732 41.7094 81.2389 42.4696C81.4913 42.8483 81.7017 43.3528 81.8495 43.9622C81.8846 44.1069 81.7727 44.2433 81.6238 44.2433H76.0285Z" fill="#202020"/>
<path d="M39.4315 27.6486C39.4283 28.2046 38.9178 28.5979 38.366 28.5397C36.998 28.3956 35.7446 28.4075 34.5729 28.5298C32.0225 28.7959 29.903 29.5837 27.9489 30.3099L27.9446 30.3115C27.8264 30.3555 27.7087 30.3992 27.5917 30.4426C25.5168 31.211 23.6049 31.8721 21.3365 31.9246C20.4316 31.9455 19.4568 31.8693 18.3833 31.653C17.4626 31.4675 16.727 30.7637 16.5446 29.8405C16.4 29.109 16.3242 28.3526 16.3242 27.5786C16.3242 21.1839 21.497 16 27.878 16C34.259 16 39.4318 21.1839 39.4318 27.5786C39.4318 27.6019 39.4317 27.6253 39.4315 27.6486Z" fill="url(#paint0_radial_1966_10433)"/>
<path d="M17.3515 33.4024C16.4839 33.1935 15.6921 34.1278 16.1194 34.9128L27.4603 55.7491C27.6428 56.0843 28.1231 56.0843 28.3056 55.7491L40.8229 32.7514C41.2669 31.9357 40.8397 30.9139 39.9305 30.7319C37.9526 30.3359 36.2673 30.2933 34.7674 30.4498C32.4659 30.6899 30.5545 31.3995 28.5703 32.1361C28.4651 32.1751 28.3598 32.2142 28.2542 32.2533C26.1769 33.0226 23.9969 33.7938 21.376 33.8544C20.1303 33.8832 18.8034 33.7519 17.3515 33.4024Z" fill="url(#paint1_linear_1966_10433)"/>
<path d="M27.8779 32.7946C27.8779 32.553 28.0285 32.3371 28.2547 32.2533C28.3603 32.2142 28.4657 32.1751 28.5708 32.1361C30.555 31.3995 32.4665 30.6899 34.7679 30.4498C36.2678 30.2933 37.9531 30.3359 39.9311 30.7319C40.8403 30.9139 41.2674 31.9357 40.8235 32.7514L28.3061 55.7491C28.2138 55.9186 28.0455 56.0024 27.8779 56.0005V32.7946Z" fill="url(#paint2_linear_1966_10433)"/>
<defs>
<radialGradient id="paint0_radial_1966_10433" cx="0" cy="0" r="1" gradientUnits="userSpaceOnUse" gradientTransform="translate(34.883 19.3771) rotate(149.79) scale(20.1182 24.1304)">
<stop offset="0.116813" stop-color="#AAAAAA"/>
<stop offset="0.734375" stop-color="#292929"/>
<stop offset="1" stop-color="#5F5F5F"/>
</radialGradient>
<linearGradient id="paint1_linear_1966_10433" x1="28.4998" y1="30.976" x2="28.4998" y2="56.0005" gradientUnits="userSpaceOnUse">
<stop stop-color="#736F6F"/>
<stop offset="0.46875"/>
<stop offset="1" stop-color="#454545"/>
</linearGradient>
<linearGradient id="paint2_linear_1966_10433" x1="34.4391" y1="30.3652" x2="34.4391" y2="57.6672" gradientUnits="userSpaceOnUse">
<stop stop-color="#A4A4A4"/>
<stop offset="1"/>
</linearGradient>
</defs>
</svg>
