<svg fill="none" height="42" opacity="0.8" viewBox="0 0 187 42" width="187" xmlns="http://www.w3.org/2000/svg"><g fill="#fff"><g clip-rule="evenodd" fill-rule="evenodd"><path d="m10.4146 17.8578 12.9036 13.1352 12.7658-12.9949 10.4669 10.6547-12.1612 12.3795-3.1285-3.0998 9.116-9.2797-4.2932-4.3703-12.7658 12.995-12.9036-13.1352-4.24095 4.3171 9.25465 9.4208-3.1285 3.0998-12.2998-12.5206z"/><path d="m36.1364 24.142-12.9036-13.1351-12.7657 12.9949-10.46693978-10.6548 12.16113978-12.379406 3.1285 3.099806-9.116 9.2796 4.2933 4.3704 12.7657-12.995 12.9036 13.1352 4.241-4.3172-9.2547-9.42074 3.1285-3.09981 12.2998 12.52055z"/><path d="m21.3066 40.7237v-8.2757h4.2137v8.2757z"/><path d="m21.3066 9.55185v-8.27566h4.2137v8.27566z"/></g><path d="m60.7498 10.738h-4.1988v21.1406h4.1988z"/><path d="m82.048 16.3167c-1.9086 0-3.729.8222-4.6392 2.6133-.9396-1.7911-2.7013-2.6133-4.7567-2.6133-1.8498 0-3.2591.7047-3.9932 1.9673l-.4404-1.6736h-3.8171v15.2682h4.1107v-8.5444c0-2.2608 1.1745-3.3472 2.9068-3.3472 1.6443 0 2.7601 1.0277 2.7601 3.5234v8.3682h3.9638v-8.4563c.0587-2.3783 1.2919-3.4353 2.9068-3.4353 1.6737 0 2.7601 1.0277 2.7601 3.3179v8.603h4.14v-9.4251c0-4.2282-2.8481-6.1661-5.9017-6.1661z"/><path d="m108.858 16.3167c-1.909 0-3.729.8222-4.639 2.6133-.94-1.7911-2.702-2.6133-4.7569-2.6133-1.8498 0-3.2592.7047-3.9932 1.9673l-.4405-1.6736h-3.817v15.2682h4.1107v-8.5444c0-2.2608 1.1744-3.3472 2.9068-3.3472 1.6443 0 2.7601 1.0277 2.7601 3.5234v8.3682h3.964v-8.4563c.058-2.3783 1.292-3.4353 2.907-3.4353 1.673 0 2.76 1.0277 2.76 3.3179v8.603h4.14v-9.4251c0-4.2282-2.848-6.1661-5.902-6.1661z"/><path d="m128.034 16.6104v8.3681c0 2.2609-1.057 3.6115-3.083 3.6409-1.938.0587-3.171-1.0864-3.171-3.4647v-8.5443h-3.905v9.0728c0 3.9051 2.26 6.489 6.166 6.489 1.82 0 3.141-.8222 3.934-1.9673l.206 1.6737h3.758v-15.2682z"/><path d="m144.002 16.3167c-2.29 0-3.817.8515-4.61 2.1141l-.235-1.8204h-3.817v15.2682h4.111v-8.0746c0-2.4664 1.174-3.9638 3.347-3.9638 1.997 0 3.201 1.2919 3.201 3.817v8.2214h4.14v-9.0729c0-3.9051-2.232-6.489-6.137-6.489z"/><path d="m168.116 24.0096c0-4.6686-3.025-7.6929-7.576-7.6929s-7.604 3.1711-7.604 7.9278c0 4.786 3.053 7.957 7.634 7.957 3.846 0 6.753-2.1434 7.428-5.3145h-4.14c-.469 1.3213-1.673 1.9966-3.171 1.9966-1.967 0-3.553-1.2625-3.611-3.5234h11.04zm-7.576-4.4924c1.791 0 3.289 1.0277 3.465 3.1417h-6.9c.176-2.114 1.674-3.1417 3.435-3.1417z"/><path d="m169.721 16.6104v3.5821h2.349v11.6861h4.14v-11.6861h3.494v-3.5821h-3.494v-1.5562c0-1.0864.293-1.9085 1.967-1.9085h1.527v-3.3473h-2.437c-3.847 0-5.197 1.8792-5.197 4.8447v1.9673z"/><path d="m182.419 14.2614h4.169l.059-4.463h-4.169zm.059 17.6172h4.11v-15.2682h-4.11z"/></g></svg>