<svg width="107" height="40" viewBox="0 0 107 40" fill="none" xmlns="http://www.w3.org/2000/svg">
<path d="M21.5149 0.0965273L15.3408 3.58965C13.1091 4.85228 12.9105 7.99172 14.9654 9.52546L21.2693 14.2307C22.5533 15.189 22.4296 17.1506 21.0354 17.9401L15.347 21.1615C13.1139 22.4261 12.9186 25.5692 14.978 27.1005L20.9797 31.5633C21.6025 32.0264 21.9695 32.7567 21.9695 33.5327V33.7164C21.9695 34.2814 22.5795 34.6358 23.0703 34.3561L29.2768 30.8185C31.5097 29.5459 31.6927 26.3961 29.6223 24.8734L23.3228 20.2404C22.0296 19.2893 22.1429 17.3221 23.5369 16.5258L29.2882 13.2402C31.5176 11.9667 31.7 8.82094 29.6327 7.29829L23.6124 2.86404C22.9845 2.40149 22.6137 1.66798 22.6137 0.888027V0.737329C22.6137 0.173416 22.0057 -0.181155 21.5149 0.0965273Z" fill="#075A5A"/>
<path d="M7.97648 5.64276L1.80237 9.13588C-0.429346 10.3985 -0.627902 13.538 1.42695 15.0717L7.73083 19.7769C9.0148 20.7352 8.89115 22.6968 7.497 23.4863L1.8085 26.7078C-0.424552 27.9724 -0.619833 31.1154 1.43951 32.6467L7.44129 37.1095C8.06402 37.5726 8.43105 38.3029 8.43105 39.0789V39.2627C8.43105 39.8276 9.04106 40.1821 9.53188 39.9023L15.7384 36.3648C17.9712 35.0921 18.1543 31.9423 16.0838 30.4196L9.7844 25.7866C8.49113 24.8355 8.60448 22.8683 9.99843 22.072L15.7498 18.7865C17.9791 17.5129 18.1615 14.3672 16.0943 12.8445L10.074 8.41027C9.44601 7.94772 9.07527 7.21421 9.07527 6.43426V6.28356C9.07527 5.71965 8.46728 5.36507 7.97648 5.64276Z" fill="#075A5A"/>
<path d="M54.1156 30.93C54.0229 30.93 53.9348 30.8892 53.8749 30.8184L45.7322 21.2096C45.5422 20.9854 45.1758 21.1198 45.1758 21.4137V30.6144C45.1758 30.7887 45.0345 30.93 44.8602 30.93H41.7648C41.5905 30.93 41.4492 30.7887 41.4492 30.6144V8.52617C41.4492 8.35186 41.5905 8.21056 41.7648 8.21056H44.8602C45.0345 8.21056 45.1758 8.35186 45.1758 8.52617V17.9131C45.1758 18.2081 45.5446 18.3418 45.7337 18.1153L53.9075 8.32391C53.9674 8.25208 54.0562 8.21056 54.1497 8.21056H57.9753C58.2474 8.21056 58.3919 8.53187 58.2115 8.73551L48.7813 19.3753C48.6747 19.4956 48.6755 19.6769 48.7833 19.7962L58.364 30.4028C58.5473 30.6058 58.4033 30.93 58.1298 30.93H54.1156Z" fill="#075A5A"/>
<path d="M75.9667 21.4826C75.9667 22.0502 75.9359 22.5716 75.8744 23.0469C75.8545 23.2007 75.7218 23.3133 75.5668 23.3133H62.4139C62.2302 23.3133 62.0845 23.4699 62.1077 23.6521C62.2703 24.9341 62.7929 25.9762 63.6753 26.7784C64.6342 27.6501 65.811 28.086 67.2058 28.086C69.14 28.086 70.5266 27.3051 71.3656 25.7434C71.4224 25.6376 71.5315 25.5689 71.6517 25.5689H75.0402C75.2551 25.5689 75.4071 25.7791 75.3297 25.9796C74.7619 27.4517 73.8192 28.6768 72.5015 29.6551C71.085 30.7012 69.3197 31.2242 67.2058 31.2242C65.4841 31.2242 63.9368 30.8428 62.5638 30.0801C61.2126 29.2955 60.1448 28.2059 59.3602 26.8111C58.5975 25.3945 58.2161 23.76 58.2161 21.9076C58.2161 20.0552 58.5866 18.4316 59.3275 17.0368C60.0903 15.6203 61.1473 14.5306 62.4984 13.7678C63.8714 13.0051 65.4405 12.6237 67.2058 12.6237C68.9057 12.6237 70.4203 12.9942 71.7497 13.7351C73.0791 14.4761 74.1142 15.5222 74.8552 16.8734C75.5962 18.2028 75.9667 19.7392 75.9667 21.4826ZM71.7677 20.8432C71.9393 20.8369 72.0751 20.6946 72.064 20.5232C71.9796 19.2224 71.4934 17.771 70.6055 17.0041C69.6466 16.176 68.4589 15.7619 67.0423 15.7619C65.7565 15.7619 64.656 16.176 63.7407 17.0041C62.7775 17.8756 62.3549 19.4953 62.1563 20.8326C62.1278 21.025 62.2826 21.1935 62.477 21.1863L71.7677 20.8432Z" fill="#075A5A"/>
<path d="M92.0311 16.3022C92.7157 15.0532 93.5239 14.0402 94.6136 13.4736C95.7032 12.907 96.9346 12.6237 98.3075 12.6237C99.8766 12.6237 101.304 13.016 102.59 13.8005C103.897 14.5633 104.922 15.642 105.663 17.0368C106.404 18.4316 106.774 20.0334 106.774 21.8422C106.774 23.6511 106.404 25.2747 105.663 26.713C104.922 28.1296 103.897 29.241 102.59 30.0474C101.304 30.8319 99.8766 31.2242 98.3075 31.2242C96.9346 31.2242 95.7141 30.9518 94.6463 30.407C93.5784 29.8403 92.5489 28.7747 92.0311 27.5784V39.1791C92.0311 39.3535 91.8898 39.4948 91.7155 39.4948H88.62C88.4457 39.4948 88.3044 39.3535 88.3044 39.1791V13.2335C88.3044 13.0592 88.4457 12.9179 88.62 12.9179H91.7155C91.8898 12.9179 92.0311 13.0592 92.0311 13.2335V16.3022ZM102.982 21.8422C102.982 20.6 102.721 19.5321 102.198 18.6386C101.696 17.7233 101.021 17.0368 100.171 16.5792C99.3427 16.0997 98.4492 15.86 97.4903 15.86C96.5532 15.86 95.6597 16.0997 94.8097 16.5792C93.9816 17.0586 93.306 17.756 92.7829 18.6713C92.2817 19.5866 92.0311 20.6654 92.0311 21.9076C92.0311 23.1498 92.2817 24.2395 92.7829 25.1766C93.306 26.0919 93.9816 26.7893 94.8097 27.2687C95.6597 27.7482 96.5532 27.9879 97.4903 27.9879C98.4492 27.9879 99.3427 27.7482 100.171 27.2687C101.021 26.7675 101.696 26.0483 102.198 25.1112C102.721 24.1741 102.982 23.0844 102.982 21.8422Z" fill="#075A5A"/>
<path d="M82.7098 31.193C80.947 31.193 80.5161 30.7842 80.0554 30.3227C79.3924 29.6806 79.0609 28.6289 79.0609 27.1675V8.04812C79.0609 7.87381 79.2022 7.7325 79.3765 7.7325H82.259C82.4333 7.7325 82.5746 7.86266 82.5746 8.03696C82.5746 10.4103 82.5746 25.8717 82.5746 26.4014C82.5746 26.8072 82.786 27.0525 82.9062 27.1729C83.0264 27.2933 83.205 27.4886 83.9007 27.4693C84.3204 27.4693 84.7133 27.4693 85.1101 27.4693C85.2844 27.4693 85.4257 27.6106 85.4257 27.7849V30.8774C85.4257 31.0517 85.2844 31.193 85.1101 31.193C84.7252 31.193 84.3675 31.193 84.0359 31.193C83.6153 31.193 83.2181 31.193 82.7098 31.193Z" fill="#075A5A"/>
</svg>
