<?xml version="1.0" encoding="UTF-8"?> <svg xmlns="http://www.w3.org/2000/svg" width="165" height="67" viewBox="0 0 165 67" fill="none"> <path fill-rule="evenodd" clip-rule="evenodd" d="M31.8404 12.2272L21.227 4.24859V59.7395L26.5438 63.3698L31.8606 67L31.8404 12.2272ZM0 1.05716L18.0449 12.5662V57.4257L7.25019 50.4046V12.5862L0 1.05716ZM52 0L35.0225 12.4266V46.7943L45.5352 39.5737V12.4266L52 0Z" fill="#52AE7F"></path> <path fill-rule="evenodd" clip-rule="evenodd" d="M31.8404 12.2272L21.227 4.24859V59.7395L26.5438 63.3698L31.8606 67L31.8404 12.2272ZM0 1.05716L18.0449 12.5662V57.4257L7.25019 50.4046V12.5862L0 1.05716ZM52 0L35.0225 12.4266V46.7943L45.5352 39.5737V12.4266L52 0Z" fill="url(#paint0_linear_12_226)"></path> <path fill-rule="evenodd" clip-rule="evenodd" d="M31.8404 12.2272L21.227 4.24859V59.7395L26.5438 63.3698L31.8606 67L31.8404 12.2272ZM0 1.05716L18.0449 12.5662V57.4257L7.25019 50.4046V12.5862L0 1.05716ZM52 0L35.0225 12.4266V46.7943L45.5352 39.5737V12.4266L52 0Z" fill="#7874FF"></path> <path fill-rule="evenodd" clip-rule="evenodd" d="M31.8404 12.2272L21.227 4.24859V59.7395L26.5438 63.3698L31.8606 67L31.8404 12.2272ZM0 1.05716L18.0449 12.5662V57.4257L7.25019 50.4046V12.5862L0 1.05716ZM52 0L35.0225 12.4266V46.7943L45.5352 39.5737V12.4266L52 0Z" fill="url(#paint1_linear_12_226)"></path> <path d="M70.0226 15.4001H72.7532L74.378 26.5814H74.5811L76.1834 15.4001H78.9365V27.1663H77.5825V16.0076H77.3794L75.7772 27.1663H73.182L71.5572 16.0076H71.3541V27.1663H70.0226V15.4001Z" fill="white"></path> <path d="M83.9915 15.4001V23.2068C83.9915 24.1517 84.2171 24.8941 84.6685 25.3665C85.1198 25.839 85.7968 26.0865 86.6769 26.0865C87.557 26.0865 88.2115 25.839 88.6628 25.3665C89.1141 24.8716 89.3398 24.1517 89.3398 23.2068V15.4001H90.7841V23.2068C90.7841 24.5791 90.423 25.614 89.6783 26.3339C88.9562 27.0539 87.9407 27.4138 86.6769 27.4138C85.3906 27.4138 84.3977 27.0539 83.6755 26.3339C82.9534 25.614 82.5698 24.5791 82.5698 23.2068V15.4001H83.9915Z" fill="white"></path> <path d="M101.21 26.5814H101.413V15.4001H102.857V27.1663H99.9686L96.5159 16.0076H96.3128V27.1663H94.8685V15.4001H97.7345L101.21 26.5814Z" fill="white"></path> <path d="M110.8 25.8615C111.319 25.8615 111.771 25.8165 112.154 25.704C112.538 25.614 112.854 25.434 113.102 25.2091C113.35 24.9616 113.531 24.6466 113.644 24.2417C113.779 23.8367 113.824 23.3193 113.824 22.7118V19.8771C113.824 19.2697 113.757 18.7523 113.644 18.3473C113.531 17.9424 113.35 17.6274 113.102 17.3799C112.854 17.1325 112.538 16.9525 112.154 16.8625C111.771 16.7725 111.319 16.705 110.8 16.705H109.537V25.8615H110.8ZM107.054 15.4001H110.981C112.47 15.4001 113.554 15.7376 114.231 16.435C114.908 17.1324 115.269 18.2348 115.269 19.7647V22.8018C115.269 24.3317 114.93 25.434 114.231 26.1315C113.554 26.8289 112.47 27.1663 110.981 27.1663H107.054V25.839H108.092V16.705H107.054V15.4001Z" fill="white"></path> <path d="M120.572 15.4001V23.2068C120.572 24.1517 120.798 24.8941 121.249 25.3665C121.701 25.839 122.378 26.0865 123.258 26.0865C124.138 26.0865 124.792 25.839 125.244 25.3665C125.695 24.8716 125.921 24.1517 125.921 23.2068V15.4001H127.365V23.2068C127.365 24.5791 127.004 25.614 126.259 26.3339C125.537 27.0539 124.521 27.4138 123.258 27.4138C121.971 27.4138 120.978 27.0539 120.256 26.3339C119.534 25.614 119.151 24.5791 119.151 23.2068V15.4001H120.572Z" fill="white"></path> <path d="M138.264 18.7974C138.264 18.4149 138.174 18.0774 138.016 17.785C137.858 17.4925 137.655 17.245 137.407 17.0651C137.136 16.8851 136.843 16.7276 136.504 16.6376C136.166 16.5476 135.805 16.4801 135.421 16.4801C135.083 16.4801 134.767 16.5251 134.473 16.6151C134.18 16.6826 133.909 16.8176 133.661 16.9751C133.435 17.1325 133.255 17.335 133.119 17.56C132.984 17.785 132.916 18.0549 132.916 18.3474V18.4374C132.916 18.7524 132.984 19.0448 133.119 19.2698C133.255 19.4948 133.458 19.6973 133.728 19.8547C133.999 20.0122 134.338 20.1472 134.744 20.2597C135.15 20.3497 135.602 20.4397 136.143 20.5297C137.407 20.7096 138.332 21.0921 138.919 21.632C139.506 22.1495 139.799 22.8694 139.799 23.7693V23.9718C139.799 24.4667 139.709 24.9392 139.528 25.3666C139.348 25.7716 139.099 26.1315 138.738 26.4465C138.4 26.739 137.971 26.9865 137.452 27.1439C136.933 27.3014 136.346 27.3914 135.669 27.3914C134.902 27.3914 134.225 27.2789 133.638 27.0764C133.051 26.8515 132.555 26.559 132.171 26.1765C131.788 25.7941 131.494 25.3216 131.291 24.8042C131.088 24.2867 130.975 23.7018 130.975 23.0944V22.5994H132.42V23.0044C132.42 24.0393 132.713 24.8042 133.277 25.3216C133.864 25.8391 134.654 26.0866 135.692 26.0866C136.572 26.0866 137.249 25.9066 137.7 25.5241C138.152 25.1417 138.377 24.6242 138.377 23.9718V23.8818C138.377 23.2744 138.152 22.8019 137.678 22.4644C137.226 22.1495 136.482 21.902 135.444 21.767C134.834 21.6995 134.293 21.5646 133.796 21.4071C133.322 21.2496 132.916 21.0246 132.555 20.7771C132.217 20.5072 131.946 20.1922 131.765 19.8097C131.585 19.4498 131.494 18.9998 131.494 18.5049V18.3024C131.494 17.8525 131.585 17.425 131.788 17.0426C131.991 16.6601 132.239 16.3226 132.6 16.0527C132.961 15.7827 133.367 15.5577 133.841 15.4227C134.338 15.2652 134.879 15.1978 135.444 15.1978C136.121 15.1978 136.707 15.2877 137.249 15.4902C137.791 15.6702 138.242 15.9402 138.603 16.2551C138.964 16.5701 139.235 16.9526 139.415 17.38C139.618 17.8075 139.709 18.2574 139.709 18.7299V19.4273H138.264V18.7974V18.7974Z" fill="white"></path> <path d="M77.2891 44.0391C77.2891 43.6566 77.1988 43.3192 77.0408 43.0267C76.8829 42.7342 76.6798 42.4868 76.4315 42.3068C76.1607 42.1268 75.8674 41.9693 75.5289 41.8793C75.1904 41.7668 74.8293 41.7218 74.4457 41.7218C74.1072 41.7218 73.7912 41.7668 73.4979 41.8568C73.2045 41.9468 72.9337 42.0593 72.6854 42.2168C72.4598 42.3743 72.2792 42.5767 72.1438 42.8017C72.0084 43.0267 71.9407 43.2967 71.9407 43.5891V43.6791C71.9407 43.9941 72.0084 44.2866 72.1438 44.5115C72.2792 44.7365 72.4823 44.939 72.7531 45.0965C73.024 45.254 73.3625 45.3889 73.7687 45.5014C74.1749 45.5914 74.6262 45.6814 75.1678 45.7714C76.4315 45.9514 77.3568 46.3338 77.9435 46.8738C78.5302 47.3912 78.8236 48.1111 78.8236 49.011V49.2135C78.8236 49.7085 78.7333 50.1809 78.5528 50.6084C78.3723 51.0133 78.124 51.3733 77.763 51.6882C77.4245 51.9807 76.9957 52.2282 76.4767 52.3857C75.9576 52.5431 75.3709 52.6331 74.6939 52.6331C73.9266 52.6331 73.2496 52.5206 72.6629 52.3182C72.0761 52.0932 71.5797 51.8007 71.196 51.4183C70.8124 51.0358 70.519 50.5634 70.3159 50.0459C70.1128 49.5285 70 48.9435 70 48.3361V47.8412H71.4443V48.2461C71.4443 49.281 71.7376 50.0459 72.3018 50.5634C72.8886 51.0808 73.6784 51.3283 74.7165 51.3283C75.5966 51.3283 76.2736 51.1483 76.7249 50.7658C77.1762 50.3834 77.4019 49.8659 77.4019 49.2135V49.101C77.4019 48.4936 77.1762 48.0211 76.7023 47.6837C76.251 47.3687 75.5063 47.1212 74.4682 46.9863C73.8589 46.9188 73.3173 46.7838 72.8208 46.6263C72.3469 46.4688 71.9407 46.2438 71.5797 45.9964C71.2412 45.7264 70.9704 45.4114 70.7898 45.029C70.6093 44.669 70.519 44.2191 70.519 43.7241V43.5216C70.519 43.0717 70.6093 42.6442 70.8124 42.2618C71.0155 41.8793 71.2637 41.5419 71.6248 41.2719C71.9859 41.0019 72.3921 40.777 72.866 40.642C73.3625 40.4845 73.9041 40.417 74.4682 40.417C75.1452 40.417 75.732 40.507 76.2736 40.7095C76.8152 40.8894 77.2665 41.1594 77.6276 41.4744C77.9886 41.7893 78.2594 42.1718 78.44 42.5992C78.6431 43.0267 78.7334 43.4766 78.7334 43.9491V44.6465H77.2891V44.0391V44.0391Z" fill="#D0CEFF"></path> <path d="M83.0438 40.4926H90.2878V41.7974H84.4655V45.712H90.1975V47.0168H84.4655V50.9539H90.4006V52.2587H83.0438V40.4926Z" fill="#D0CEFF"></path> <path d="M98.9302 51.1788C99.4267 51.1788 99.8329 51.1113 100.171 50.9538C100.532 50.7963 100.803 50.5714 101.029 50.3014C101.255 50.0314 101.413 49.7164 101.525 49.3565C101.638 48.9965 101.706 48.6141 101.706 48.2316V48.0291H103.15V48.2316C103.15 48.8165 103.06 49.379 102.879 49.9189C102.699 50.4364 102.428 50.8863 102.067 51.2913C101.706 51.6737 101.277 51.9662 100.758 52.1912C100.239 52.3937 99.6298 52.5061 98.9528 52.5061C97.6214 52.5061 96.6058 52.1012 95.8611 51.2688C95.1164 50.4589 94.7554 49.2665 94.7554 47.6917V45.0595C94.7554 43.5296 95.1164 42.3598 95.8611 41.5049C96.6058 40.6725 97.6439 40.245 98.9528 40.245C99.6298 40.245 100.239 40.3575 100.758 40.5825C101.277 40.7849 101.729 41.0999 102.067 41.4824C102.428 41.8648 102.699 42.3148 102.879 42.8547C103.06 43.3722 103.15 43.9346 103.15 44.5195V44.722H101.706V44.5195C101.683 44.1371 101.638 43.7771 101.525 43.4172C101.413 43.0572 101.255 42.7422 101.029 42.4723C100.803 42.2023 100.532 41.9773 100.194 41.8198C99.8555 41.6623 99.4267 41.5724 98.9528 41.5724C98.0276 41.5724 97.328 41.9098 96.8541 42.5622C96.4027 43.2147 96.1771 44.0921 96.1771 45.172V47.6017C96.1771 48.7491 96.4027 49.649 96.8541 50.2789C97.3054 50.8638 98.005 51.1788 98.9302 51.1788Z" fill="#D0CEFF"></path> <path d="M108.386 40.6429V48.4496C108.386 49.3945 108.612 50.1369 109.063 50.6093C109.515 51.0818 110.192 51.3293 111.072 51.3293C111.952 51.3293 112.606 51.0818 113.058 50.6093C113.509 50.1144 113.735 49.3945 113.735 48.4496V40.6429H115.179V48.4496C115.179 49.8219 114.818 50.8568 114.073 51.5767C113.351 52.2966 112.335 52.6566 111.072 52.6566C109.785 52.6566 108.792 52.2966 108.07 51.5767C107.348 50.8568 106.965 49.8219 106.965 48.4496V40.6429H108.386Z" fill="#D0CEFF"></path> <path d="M120.888 46.2448H123.551C124.364 46.2448 124.95 46.0873 125.356 45.7499C125.763 45.4124 125.966 44.895 125.966 44.2425V43.9276C125.966 43.3426 125.763 42.8477 125.356 42.4877C124.973 42.1278 124.364 41.9253 123.551 41.9253H120.888V46.2448ZM126.981 52.4091H125.537V48.4721C125.537 48.1796 125.469 47.9546 125.334 47.7972C125.198 47.6397 124.95 47.5722 124.612 47.5722H120.888V52.4091H119.444V40.6429H123.732C124.341 40.6429 124.883 40.7329 125.334 40.9129C125.785 41.0704 126.169 41.3179 126.462 41.6103C126.778 41.9028 127.004 42.2403 127.139 42.6452C127.297 43.0277 127.387 43.4326 127.387 43.8601V44.355C127.387 44.7825 127.252 45.2324 127.004 45.6599C126.756 46.0873 126.395 46.4248 125.876 46.6723V46.8747C126.214 46.9197 126.485 47.0547 126.688 47.2797C126.891 47.4822 126.981 47.7972 126.981 48.1796V52.4091V52.4091Z" fill="#D0CEFF"></path> <path d="M131.63 40.6429H139.235V41.9478H136.143V51.1043H139.235V52.4091H131.63V51.1043H134.721V41.9478H131.63V40.6429Z" fill="#D0CEFF"></path> <path d="M143.41 40.6429H151.827V41.9478H148.352V52.4091H146.908V41.9478H143.41V40.6429Z" fill="#D0CEFF"></path> <path d="M159.094 48.2696H158.778L155.032 40.6429H156.657L159.703 47.0547H159.906L162.975 40.6429H164.6L160.832 48.2696H160.538V52.4091H159.094V48.2696Z" fill="#D0CEFF"></path> <defs> <linearGradient id="paint0_linear_12_226" x1="22.1549" y1="-23.0106" x2="36.2921" y2="80.4692" gradientUnits="userSpaceOnUse"> <stop stop-color="#2730EA"></stop> <stop offset="1" stop-color="#6CEFC8"></stop> </linearGradient> <linearGradient id="paint1_linear_12_226" x1="26" y1="0" x2="26" y2="67" gradientUnits="userSpaceOnUse"> <stop stop-color="#BFD1FF"></stop> <stop offset="1" stop-color="#769DFF"></stop> </linearGradient> </defs> </svg> 