<svg width="132" height="44" viewBox="0 0 985 301" fill="none" xmlns="http://www.w3.org/2000/svg">
    <path fill-rule="evenodd" clip-rule="evenodd" fill="url(#paint0_linear_405_537)"
          d="M125.025 11.9172C124.089 6.39245 131.867 4.15936 134.005 9.33904L138.173 19.4388C138.303 19.754 138.402 20.0733 138.472 20.3936C148.467 17.9838 158.536 16.7702 168.507 16.6762C168.496 16.3465 168.515 16.0106 168.565 15.671L170.155 4.8884C170.972 -0.655081 179.06 -0.375252 179.492 5.21146L180.333 16.0782C180.359 16.4217 180.355 16.7592 180.322 17.0886C190.462 17.893 200.426 19.8479 210.028 22.87C210.12 22.5533 210.242 22.2397 210.394 21.9323L215.248 12.1497C217.738 7.1301 225.344 9.89546 224.028 15.3423L221.465 25.958C221.385 26.2914 221.277 26.6097 221.144 26.9116C230.474 30.7742 239.366 35.6805 247.631 41.546C247.813 41.283 248.019 41.0315 248.251 40.7943L255.89 32.9901C259.81 28.9858 266.189 33.966 263.255 38.7398L257.537 48.0434C257.366 48.3204 257.177 48.5769 256.97 48.8125C265.369 55.9632 272.945 64.2022 279.458 73.422C279.442 72.5324 279.437 71.649 279.432 70.7808L279.431 70.6273C279.412 66.2063 283.41 62.808 287.94 62.1746C290.105 61.8874 292.304 62.3265 294.193 63.4234C296.082 64.5202 297.553 66.2128 298.377 68.2357C300.956 74.7947 301.391 82.0016 299.621 88.8233C299.476 89.4381 299.306 90.0526 299.114 90.749L299.113 90.7514C299.04 91.0165 298.963 91.2935 298.883 91.5868C305.505 95.3191 310.697 101.148 313.642 108.156C316.008 113.798 313.763 119.562 308.549 121.85C305.862 123.005 303.231 122.701 300.822 121.439C302.952 130.817 304.034 140.251 304.131 149.599C304.411 149.597 304.695 149.617 304.982 149.66L315.763 151.249C321.307 152.067 321.027 160.154 315.44 160.587L304.574 161.427C304.288 161.45 304.007 161.45 303.73 161.431C302.934 171.584 300.984 181.563 297.964 191.179C298.219 191.263 298.472 191.366 298.72 191.49L308.502 196.343C313.521 198.833 310.756 206.438 305.309 205.123L294.695 202.56C294.427 202.496 294.17 202.413 293.922 202.315C290.058 211.661 285.147 220.568 279.274 228.847C279.477 228.998 279.672 229.165 279.858 229.347L287.661 236.985C291.666 240.905 286.686 247.283 281.912 244.349L272.609 238.632C272.393 238.499 272.189 238.354 271.998 238.199C265.489 245.844 258.078 252.808 249.846 258.909C249.986 259.109 250.115 259.32 250.231 259.542L255.282 269.198C257.879 274.163 251.171 278.691 247.538 274.425L240.472 266.13C240.308 265.938 240.16 265.738 240.027 265.533C233.071 269.788 225.628 273.467 217.735 276.483C216.009 277.143 214.277 277.765 212.541 278.349C212.611 278.578 212.667 278.815 212.708 279.058L214.532 289.829C215.468 295.354 207.69 297.587 205.552 292.407L201.385 282.308C201.293 282.085 201.216 281.86 201.154 281.634C191.136 284.053 181.045 285.27 171.052 285.362C171.047 285.598 171.027 285.837 170.992 286.077L169.402 296.858C168.585 302.401 160.497 302.121 160.065 296.535L159.224 285.67C159.205 285.425 159.202 285.184 159.214 284.946C149.052 284.136 139.068 282.171 129.447 279.134C129.368 279.364 129.273 279.592 129.161 279.816L124.309 289.596C121.819 294.616 114.213 291.851 115.528 286.404L118.091 275.79C118.151 275.543 118.226 275.305 118.314 275.075C108.971 271.196 100.068 266.27 91.7952 260.381C91.6466 260.579 91.483 260.771 91.3042 260.953L83.6666 268.756C79.7469 272.76 73.3683 267.78 76.3024 263.006L82.0193 253.704C82.1528 253.487 82.2983 253.283 82.4544 253.091C74.8216 246.571 67.8709 239.152 61.7833 230.912C61.5719 231.063 61.3471 231.201 61.1094 231.326L51.4533 236.376C46.4881 238.973 41.9607 232.266 46.2263 228.632L54.5219 221.566C54.7318 221.387 54.9505 221.227 55.1762 221.085C51.8445 215.621 48.8677 209.856 46.2883 203.81L27.9751 228.088C25.5475 231.306 20.8132 231.65 18.2778 228.516C0.922528 207.062 -1.22233 178.688 0.478874 161.353C0.887925 157.185 5.2518 154.886 9.11065 156.514L36.5378 168.085C35.8516 162.762 35.4923 157.441 35.4485 152.147C35.1612 152.15 34.8695 152.13 34.5752 152.087L23.7939 150.497C18.2504 149.68 18.5302 141.592 24.1169 141.16L34.9823 140.319C35.2852 140.295 35.5835 140.296 35.8756 140.319C36.6932 130.174 38.6625 120.206 41.7001 110.601C41.4087 110.511 41.1202 110.397 40.8369 110.257L31.0551 105.404C26.0355 102.913 28.8009 95.3078 34.2478 96.623L44.8625 99.1861C45.1753 99.2617 45.4749 99.3615 45.7601 99.483C49.6371 90.1561 54.5577 81.269 60.4374 73.0104C60.1794 72.8314 59.9325 72.628 59.6994 72.3999L51.8956 64.7611C47.8912 60.8415 52.8714 54.4629 57.6453 57.3969L66.9485 63.1147C67.2259 63.2852 67.4827 63.4752 67.7185 63.6819C74.2276 56.0607 81.6343 49.1197 89.8583 43.0387C89.6611 42.7819 89.4828 42.5039 89.3267 42.2055L84.2752 32.5479C81.6781 27.5827 88.3856 23.0552 92.0192 27.3209L99.0866 35.6177C99.3086 35.8784 99.5022 36.1527 99.668 36.4372C106.591 32.2108 113.997 28.5545 121.847 25.5548C123.595 24.887 125.348 24.2582 127.105 23.6678C126.993 23.3564 126.907 23.0302 126.849 22.6908L125.025 11.9172ZM61.7423 192.307C84.546 251.982 151.408 281.873 211.082 259.069C270.195 236.48 300.081 170.656 278.47 111.412C271.303 117.431 262.704 122.885 252.704 126.55C230.262 134.775 213.128 138.358 198.668 139.776C182.225 162.387 154.271 171.819 140.746 173.761L142.469 139.903C133.662 140.27 124.199 141.429 113.133 144.272C92.3481 149.612 72.9881 158.321 55.416 168.433C56.6428 176.438 58.734 184.435 61.7423 192.307ZM91.2223 195.22C85.6808 196.206 80.3892 192.513 79.403 186.971C78.4169 181.43 82.1097 176.138 87.6512 175.152C93.1927 174.166 98.4844 177.859 99.4705 183.4C100.457 188.942 96.7638 194.233 91.2223 195.22ZM138.206 196.452C134.589 197.096 131.135 194.686 130.491 191.069C129.848 187.452 132.258 183.999 135.875 183.355C139.492 182.711 142.945 185.122 143.589 188.738C144.232 192.355 141.822 195.809 138.206 196.452ZM197.868 194.119C194.251 194.763 190.797 192.353 190.154 188.736C189.51 185.119 191.92 181.666 195.537 181.022C199.154 180.378 202.608 182.789 203.251 186.405C203.895 190.022 201.485 193.476 197.868 194.119ZM210.292 225.982C210.935 229.599 214.389 232.009 218.006 231.366C221.622 230.722 224.033 227.268 223.389 223.651C222.745 220.035 219.292 217.624 215.675 218.268C212.058 218.912 209.648 222.365 210.292 225.982ZM140.569 242.219C136.952 242.863 133.498 240.452 132.855 236.836C132.211 233.219 134.621 229.765 138.238 229.122C141.855 228.478 145.309 230.888 145.952 234.505C146.596 238.122 144.186 241.575 140.569 242.219ZM104.672 214.105C105.315 217.722 108.769 220.132 112.386 219.489C116.003 218.845 118.413 215.391 117.769 211.774C117.126 208.158 113.672 205.747 110.055 206.391C106.438 207.035 104.028 210.488 104.672 214.105ZM169.617 216.248C166 216.892 162.546 214.482 161.903 210.865C161.259 207.248 163.669 203.794 167.286 203.151C170.903 202.507 174.357 204.917 175 208.534C175.644 212.151 173.234 215.605 169.617 216.248ZM226.397 189.039C227.383 194.58 232.675 198.273 238.216 197.287C243.758 196.301 247.451 191.009 246.464 185.468C245.478 179.926 240.187 176.233 234.645 177.219C229.104 178.205 225.411 183.497 226.397 189.039ZM169.35 240.695C170.336 246.236 175.627 249.929 181.169 248.943C186.71 247.957 190.403 242.665 189.417 237.124C188.431 231.582 183.139 227.889 177.598 228.875C172.056 229.862 168.363 235.153 169.35 240.695ZM247.274 84.3185C249.314 93.2801 244.024 102.125 235.46 104.074C226.895 106.024 218.299 100.339 216.259 91.3776C214.22 82.4161 219.509 73.5711 228.074 71.6218C236.638 69.6725 245.234 75.357 247.274 84.3185Z">
    </path>
    <path d="M236.11 96.2869C239.967 95.409 242.273 91.089 241.26 86.6379C240.247 82.1869 236.298 79.2903 232.441 80.1682C228.584 81.0461 226.278 85.3661 227.291 89.8172C228.304 94.2682 232.253 97.1648 236.11 96.2869Z"
          fill="#4A98EA">
    </path>
    <path fill-rule="evenodd" clip-rule="evenodd" fill="white"
          d="M726.964 92.9568C726.964 60.4315 753.257 34.0645 785.691 34.0645V62.8311C769.1 62.8312 755.65 76.3189 755.65 92.9568V92.9581H785.691V121.725H755.65V210.742H726.964V92.9568ZM710.048 34.919C677.614 34.919 651.322 61.285 651.321 93.8095L651.319 211.595H680.005V93.8113C680.005 77.1734 693.456 63.6857 710.048 63.6857V34.919ZM438.285 182.827C454.876 182.827 468.326 169.34 468.326 152.702C468.326 136.064 454.876 122.576 438.285 122.576C421.694 122.576 408.244 136.064 408.244 152.702C408.244 169.34 421.694 182.827 438.285 182.827ZM438.285 211.594C427.307 211.594 417.033 208.574 408.244 203.316V270.064H379.558V152.702C379.558 120.176 405.851 93.8094 438.285 93.8094C470.719 93.8094 497.012 120.176 497.012 152.702C497.012 185.227 470.719 211.594 438.285 211.594ZM627.363 93.8094H598.677V152.701C598.677 169.338 585.228 182.825 568.637 182.825C552.046 182.825 538.596 169.338 538.596 152.701V152.699V93.8095H509.91V152.699V152.701C509.91 185.226 536.203 211.592 568.637 211.592C601.071 211.592 627.364 185.225 627.364 152.7L627.363 93.8094ZM680.007 93.8107V122.577H710.048V93.8107H680.007ZM899.98 114.832C905.364 121.513 909.188 129.246 911.253 137.465C911.253 137.465 911.897 139.962 912.4 143.996C912.902 148.03 913.031 151.847 913.031 151.847L913.032 151.849C913.031 156.811 912.419 161.629 911.267 166.232H899.604V166.234H827.899C832.99 175.613 842.905 181.978 854.303 181.978C861.95 181.978 868.929 179.114 874.232 174.396L893.257 195.922C883.203 204.859 870.397 210.068 856.976 210.681C843.554 211.293 830.329 207.273 819.507 199.29C808.684 191.307 800.918 179.844 797.505 166.813C794.091 153.782 795.236 139.971 800.748 127.685C806.261 115.398 815.808 105.379 827.797 99.2974C839.785 93.2161 853.491 91.4409 866.627 94.2679C879.763 97.0949 891.535 104.353 899.98 114.832ZM827.899 137.467C832.99 128.088 842.906 121.723 854.303 121.723C865.701 121.723 875.617 128.088 880.708 137.467H827.899ZM954.613 152.697C954.613 136.092 968.011 122.624 984.558 122.572V93.8052C952.168 93.8575 925.927 120.204 925.927 152.697L954.613 152.697ZM925.927 211.592H954.613V152.7L925.927 152.7V211.592Z">
    </path>
    <defs>
        <linearGradient id="paint0_linear_405_537" x1="187.317" y1="0.873041" x2="318.66" y2="214.549"
                        gradientUnits="userSpaceOnUse">
            <stop offset="0.0677083" stop-color="#874FFF">
            </stop>
            <stop offset="0.463542" stop-color="#36AFE2">
            </stop>
            <stop offset="0.859375" stop-color="#41FF54">
            </stop>
        </linearGradient>
    </defs>
</svg>