<svg width="1535" height="370" viewBox="0 0 1535 370" fill="none" xmlns="http://www.w3.org/2000/svg">
<path d="M235.361 185.582C247.413 167.504 253.439 147.082 253.439 124.987C253.439 104.9 248.417 86.4875 238.709 69.4138C228.665 52.3401 215.274 38.949 198.2 28.9056C181.127 19.1971 162.379 14.1753 142.627 14.1753H0.0114746V61.0443H142.627C160.37 61.0443 175.435 67.4051 188.157 79.7919C200.544 92.1787 206.905 107.244 206.905 125.322C206.905 143.4 200.544 158.13 188.157 170.852C175.77 183.239 160.705 189.599 142.627 189.599H0.0114746V353.306H46.8805V236.468H142.627C142.962 236.468 143.631 236.468 144.301 236.468C144.971 236.468 145.64 236.468 145.975 236.468L206.905 353.641H253.774L187.822 226.76C207.239 217.386 222.974 203.995 235.361 185.582Z" fill="#C4FF61"/>
<path d="M303.32 160.474V207.343H542.018V160.474H303.32ZM303.32 307.776L278.882 353.641H542.352V307.776H303.32ZM278.882 14.1753L303.32 61.0443H542.018V14.1753H278.882Z" fill="#C4FF61"/>
<path d="M828.589 14.1744V258.898L577.505 0.11377V353.975H624.374V112.599L875.458 369.375V14.1744H828.589Z" fill="#C4FF61"/>
<path d="M1005.35 228.434L1088.71 179.221C1110.14 166.5 1127.21 149.426 1139.6 127.665C1151.99 105.905 1158.01 82.4702 1158.01 57.3618V14.1753H914.292V61.0443H1111.48V61.7139C1111.48 77.7833 1107.46 92.8483 1099.43 106.909C1091.39 120.97 1080.34 132.017 1066.62 140.052L984.261 188.595C962.501 201.317 945.762 218.39 933.04 240.151C920.653 261.911 914.292 285.346 914.292 310.454V353.306H1158.01V306.437H960.827C960.827 290.368 964.844 275.303 972.879 261.577C980.579 247.516 991.626 236.468 1005.35 228.434Z" fill="#C4FF61"/>
<path d="M1534.64 198.638C1534.64 198.973 1534.64 199.308 1534.64 199.643C1527.27 281.329 1462.33 345.271 1382.98 353.306C1382.31 353.306 1381.98 353.306 1381.31 353.306L1534.64 198.638Z" fill="#C4FF61"/>
<path d="M1439.22 29.5744C1434.87 27.5658 1430.52 25.5572 1426.17 23.8833C1417.46 20.5355 1408.43 17.8572 1399.05 15.8485C1387.67 13.505 1376.29 12.166 1364.23 12.166C1358.54 12.166 1352.85 12.5007 1347.16 12.8355C1307.66 16.8529 1272.51 33.9266 1245.39 60.0393C1243.71 61.7132 1241.71 63.7219 1240.03 65.3958C1214.25 92.5129 1197.51 128.334 1193.83 167.503C1193.5 172.525 1193.16 177.547 1193.16 182.903C1193.16 195.625 1194.5 208.011 1197.18 220.063C1199.19 229.103 1201.87 237.807 1205.21 246.511C1207.22 251.198 1209.23 255.885 1211.24 260.237C1215.26 267.937 1219.61 275.302 1224.63 282.332L1252.75 253.876L1433.53 71.087L1461.66 42.6308C1454.96 37.9439 1447.26 33.5918 1439.22 29.5744ZM1236.35 215.377C1236.01 214.372 1235.68 213.033 1235.68 212.029C1233.67 202.655 1232.67 192.946 1232.67 183.238C1232.67 149.425 1245.39 117.621 1268.49 93.1824L1273.17 88.4955C1297.95 64.7262 1330.09 51.6699 1364.57 51.6699C1373.61 51.6699 1382.65 52.6742 1391.35 54.348C1392.69 54.6828 1394.03 55.0177 1395.37 55.3524L1236.35 215.377Z" fill="#C4FF61"/>
<path d="M1305.31 343.932C1300.96 342.258 1296.94 340.584 1292.93 338.91C1284.56 334.893 1276.52 330.541 1268.82 325.185L1505.18 86.4873C1510.2 93.8524 1514.89 101.552 1518.57 109.922C1520.58 114.274 1522.59 118.626 1524.26 122.978L1305.31 343.932Z" fill="#C4FF61"/>
</svg>
