<svg width="223" height="32" viewBox="0 0 223 32" fill="none" xmlns="http://www.w3.org/2000/svg">
<g clip-path="url(#clip0_1_6913)">
<path d="M13.7412 24.4395C13.2072 24.4395 12.6851 24.5964 12.2411 24.8905C11.797 25.1847 11.451 25.6028 11.2466 26.0919C11.0422 26.581 10.9887 27.1192 11.0929 27.6385C11.1971 28.1577 11.4543 28.6347 11.8319 29.009C12.2095 29.3834 12.6907 29.6383 13.2144 29.7416C13.7383 29.8449 14.2811 29.7919 14.7746 29.5893C15.268 29.3867 15.6897 29.0436 15.9864 28.6034C16.2831 28.1631 16.4414 27.6456 16.4414 27.1163C16.4414 26.4063 16.157 25.7255 15.6505 25.2235C15.1442 24.7215 14.4574 24.4395 13.7412 24.4395Z" fill="white"/>
<path d="M23.7549 13.5859C23.2209 13.5859 22.6988 13.7429 22.2547 14.037C21.8107 14.3312 21.4646 14.7492 21.2603 15.2384C21.0559 15.7275 21.0024 16.2657 21.1066 16.7849C21.2108 17.3042 21.468 17.7811 21.8456 18.1555C22.2232 18.5299 22.7043 18.7848 23.2282 18.8881C23.7519 18.9914 24.2948 18.9384 24.7883 18.7358C25.2817 18.5332 25.7034 18.1901 26.0001 17.7499C26.2968 17.3096 26.4551 16.7921 26.4551 16.2627C26.4551 15.5528 26.1707 14.8719 25.6642 14.3699C25.1579 13.868 24.4711 13.5859 23.7549 13.5859Z" fill="white"/>
<path d="M3.53028 13.5859C2.99625 13.5859 2.47419 13.7429 2.03013 14.037C1.58607 14.3312 1.24001 14.7492 1.03564 15.2384C0.831263 15.7275 0.77775 16.2657 0.881987 16.7849C0.98617 17.3042 1.24335 17.7811 1.62094 18.1555C1.99859 18.5299 2.47971 18.7848 3.00352 18.8881C3.52733 18.9914 4.07022 18.9384 4.56364 18.7358C5.05706 18.5332 5.47876 18.1901 5.77546 17.7499C6.07215 17.3096 6.2305 16.7921 6.2305 16.2627C6.2305 15.5528 5.94605 14.8719 5.43962 14.3699C4.93325 13.868 4.24644 13.5859 3.53028 13.5859Z" fill="white"/>
<path d="M13.7417 7.56063C14.2759 7.56173 14.7986 7.4056 15.2433 7.11213C15.6881 6.81867 16.035 6.40102 16.2403 5.91197C16.4455 5.42293 16.4997 4.88454 16.3961 4.36494C16.2926 3.84535 16.0359 3.36786 15.6584 2.99295C15.281 2.61809 14.7999 2.3626 14.2759 2.25889C13.752 2.15512 13.2088 2.20784 12.715 2.41028C12.2214 2.61272 11.7993 2.95578 11.5024 3.3961C11.2054 3.83641 11.0469 4.35416 11.0469 4.88383C11.0469 5.5928 11.3306 6.27285 11.8358 6.7747C12.3411 7.27655 13.0264 7.5592 13.7417 7.56063Z" fill="white"/>
<path d="M19.8848 19.7198C18.9188 18.7563 18.3767 17.4531 18.3767 16.0947C18.3767 14.7363 18.9188 13.4331 19.8848 12.4697C20.2614 12.0948 20.5175 11.6179 20.6208 11.099C20.7242 10.5799 20.6701 10.0423 20.4653 9.55379C20.2607 9.0653 19.9146 8.64781 19.4708 8.35418C19.027 8.0605 18.5053 7.90381 17.9717 7.90381C17.4381 7.90381 16.9165 8.0605 16.4727 8.35418C16.0288 8.64781 15.6827 9.0653 15.4781 9.55379C15.2734 10.0423 15.2193 10.5799 15.3226 11.099C15.4259 11.6179 15.6821 12.0948 16.0586 12.4697C16.5438 12.9462 16.929 13.5134 17.1919 14.1384C17.4547 14.7634 17.59 15.4339 17.59 16.111C17.59 16.7881 17.4547 17.4585 17.1919 18.0835C16.929 18.7085 16.5438 19.2757 16.0586 19.7523C15.6821 20.127 15.4259 20.6041 15.3226 21.123C15.2193 21.642 15.2734 22.1796 15.4781 22.6682C15.6827 23.1567 16.0288 23.5741 16.4727 23.8677C16.9165 24.1614 17.4381 24.3182 17.9717 24.3182C18.5053 24.3182 19.027 24.1614 19.4708 23.8677C19.9146 23.5741 20.2607 23.1567 20.4653 22.6682C20.6701 22.1796 20.7242 21.642 20.6208 21.123C20.5175 20.6041 20.2614 20.127 19.8848 19.7523V19.7198Z" fill="white"/>
<path d="M12.1121 21.2803C12.1093 20.5774 11.8309 19.9032 11.336 19.4C10.37 18.4366 9.82782 17.1333 9.82782 15.7749C9.82782 14.4165 10.37 13.1133 11.336 12.1498C11.7126 11.7751 11.9686 11.2981 12.072 10.7791C12.1753 10.2602 12.1212 9.72252 11.9165 9.23403C11.7119 8.74547 11.3657 8.3281 10.9219 8.03441C10.4781 7.74078 9.95648 7.58398 9.42286 7.58398C8.88924 7.58398 8.36765 7.74078 7.92381 8.03441C7.48003 8.3281 7.13391 8.74547 6.92919 9.23403C6.72458 9.72252 6.67044 10.2602 6.77373 10.7791C6.87713 11.2981 7.1332 11.7751 7.50972 12.1498C7.99413 12.6264 8.37864 13.1932 8.64099 13.8177C8.90335 14.4422 9.03841 15.112 9.03841 15.7885C9.03841 16.465 8.90335 17.1348 8.64099 17.7593C8.37864 18.3838 7.99413 18.9506 7.50972 19.4271C7.19887 19.7401 6.97047 20.1241 6.84471 20.5453C6.71894 20.9664 6.69959 21.4117 6.78844 21.8421C6.87735 22.2724 7.07163 22.6744 7.35427 23.0127C7.63696 23.351 7.99916 23.615 8.40915 23.7817C8.81909 23.9484 9.26407 24.0126 9.7049 23.9685C10.1457 23.9243 10.5689 23.7734 10.9369 23.5289C11.305 23.2844 11.6068 22.9539 11.8155 22.5664C12.0243 22.179 12.1337 21.7466 12.134 21.3074L12.1121 21.2803Z" fill="white"/>
<path d="M39.2842 28.2163L30.4336 5.70947H34.1068L41.733 25.6153H40.6835L48.3097 5.70947H51.9129L43.1323 28.2163H39.2842Z" fill="white"/>
<path d="M58.7449 18.4714V25.2339H73.3679V28.2163H55.3867V5.70947H73.3329V8.69187H58.7449V15.5584H70.6744V18.4714H58.7449Z" fill="white"/>
<path d="M81.6006 5.70947V25.2339H94.9638V28.2163H78.2422V5.70947H81.6006Z" fill="white"/>
<path d="M109.557 28.5979C107.201 28.5979 105.102 28.124 103.26 27.176C101.441 26.2281 100.007 24.8872 98.9572 23.1533C97.9309 21.4193 97.418 19.3616 97.418 16.9803C97.418 14.5759 97.9309 12.5067 98.9572 10.7728C100.007 9.03882 101.441 7.69786 103.26 6.75C105.102 5.80208 107.201 5.32812 109.557 5.32812C111.935 5.32812 114.035 5.80208 115.854 6.75C117.672 7.69786 119.107 9.03882 120.157 10.7728C121.206 12.5067 121.731 14.5759 121.731 16.9803C121.731 19.3616 121.206 21.4193 120.157 23.1533C119.107 24.8872 117.672 26.2281 115.854 27.176C114.035 28.124 111.935 28.5979 109.557 28.5979ZM109.557 25.5808C111.236 25.5808 112.728 25.2571 114.035 24.6098C115.34 23.9625 116.378 23.003 117.148 21.7314C117.917 20.4598 118.302 18.8762 118.302 16.9803C118.302 15.0846 117.917 13.5009 117.148 12.2293C116.378 10.9577 115.34 9.99827 114.035 9.35093C112.728 8.68048 111.236 8.3452 109.557 8.3452C107.924 8.3452 106.443 8.68048 105.114 9.35093C103.784 9.99827 102.735 10.9577 101.966 12.2293C101.196 13.5009 100.811 15.0846 100.811 16.9803C100.811 18.8762 101.196 20.4598 101.966 21.7314C102.735 23.003 103.784 23.9625 105.114 24.6098C106.443 25.2571 107.924 25.5808 109.557 25.5808Z" fill="white"/>
<path d="M147.929 20.5176C147.719 22.2053 147.136 23.6503 146.18 24.8526C145.247 26.0548 144.023 26.9795 142.506 27.6269C140.991 28.2742 139.265 28.5979 137.329 28.5979C135.58 28.5979 133.971 28.332 132.502 27.8003C131.055 27.2685 129.796 26.5056 128.723 25.5114C127.651 24.5173 126.811 23.3035 126.205 21.8701C125.598 20.4136 125.295 18.7837 125.295 16.9803C125.295 15.1539 125.598 13.524 126.205 12.0906C126.811 10.6572 127.651 9.4434 128.723 8.44925C129.796 7.43198 131.055 6.65747 132.502 6.12578C133.971 5.59402 135.58 5.32812 137.329 5.32812C139.288 5.32812 141.026 5.66338 142.541 6.33383C144.058 6.98117 145.282 7.9175 146.215 9.14282C147.171 10.345 147.754 11.7901 147.964 13.4777H144.746C144.442 12.3912 143.941 11.4664 143.241 10.7034C142.541 9.94045 141.69 9.36246 140.687 8.96947C139.684 8.55331 138.565 8.3452 137.329 8.3452C135.743 8.3452 134.297 8.68048 132.991 9.35093C131.685 10.0214 130.636 10.9924 129.843 12.264C129.073 13.5355 128.688 15.1077 128.688 16.9803C128.688 18.8299 129.073 20.402 129.843 21.6967C130.636 22.9683 131.685 23.9393 132.991 24.6098C134.297 25.2571 135.743 25.5808 137.329 25.5808C138.565 25.5808 139.673 25.3843 140.652 24.9913C141.655 24.5982 142.506 24.0202 143.206 23.2573C143.906 22.4943 144.419 21.5811 144.746 20.5176H147.929Z" fill="white"/>
<path d="M163.67 28.5979C161.315 28.5979 159.216 28.124 157.374 27.176C155.555 26.2281 154.12 24.8872 153.07 23.1533C152.045 21.4193 151.531 19.3616 151.531 16.9803C151.531 14.5759 152.045 12.5067 153.07 10.7728C154.12 9.03882 155.555 7.69786 157.374 6.75C159.216 5.80208 161.315 5.32812 163.67 5.32812C166.049 5.32812 168.148 5.80208 169.967 6.75C171.786 7.69786 173.221 9.03882 174.27 10.7728C175.32 12.5067 175.845 14.5759 175.845 16.9803C175.845 19.3616 175.32 21.4193 174.27 23.1533C173.221 24.8872 171.786 26.2281 169.967 27.176C168.148 28.124 166.049 28.5979 163.67 28.5979ZM163.67 25.5808C165.349 25.5808 166.842 25.2571 168.148 24.6098C169.454 23.9625 170.492 23.003 171.262 21.7314C172.031 20.4598 172.416 18.8762 172.416 16.9803C172.416 15.0846 172.031 13.5009 171.262 12.2293C170.492 10.9577 169.454 9.99827 168.148 9.35093C166.842 8.68048 165.349 8.3452 163.67 8.3452C162.038 8.3452 160.557 8.68048 159.227 9.35093C157.898 9.99827 156.849 10.9577 156.079 12.2293C155.31 13.5009 154.925 15.0846 154.925 16.9803C154.925 18.8762 155.31 20.4598 156.079 21.7314C156.849 23.003 157.898 23.9625 159.227 24.6098C160.557 25.2571 162.038 25.5808 163.67 25.5808Z" fill="white"/>
<path d="M180.389 28.2163V5.70947H192.073C193.705 5.70947 195.105 5.95223 196.27 6.43775C197.46 6.90009 198.37 7.61684 198.999 8.58782C199.629 9.53573 199.944 10.7495 199.944 12.2291C199.944 13.2464 199.769 14.1134 199.419 14.8301C199.092 15.5237 198.638 16.1017 198.055 16.564C197.472 17.0264 196.784 17.3848 195.99 17.6391C195.198 17.8934 194.347 18.0553 193.437 18.1246L193.192 17.9165C194.568 17.9628 195.723 18.1131 196.655 18.3674C197.588 18.6217 198.3 19.0841 198.79 19.7545C199.302 20.4019 199.559 21.3729 199.559 22.6676V28.2163H196.165V22.7717C196.165 21.87 196.014 21.1649 195.711 20.6562C195.408 20.1476 194.883 19.7893 194.137 19.5811C193.39 19.3731 192.341 19.269 190.988 19.269H183.747V28.2163H180.389ZM183.747 16.356H192.073C193.565 16.356 194.685 15.9861 195.431 15.2462C196.2 14.5064 196.585 13.5354 196.585 12.3332C196.585 11.1772 196.2 10.2871 195.431 9.66291C194.685 9.03869 193.565 8.72658 192.073 8.72658H183.747V16.356Z" fill="white"/>
<path d="M208.208 18.4714V25.2339H222.831V28.2163H204.85V5.70947H222.796V8.69187H208.208V15.5584H220.137V18.4714H208.208Z" fill="white"/>
</g>
<defs>
<clipPath id="clip0_1_6913">
<rect width="222" height="32" fill="white" transform="translate(0.830078)"/>
</clipPath>
</defs>
</svg>
