<svg width="200" height="41" viewBox="0 0 200 41" fill="none" xmlns="http://www.w3.org/2000/svg">
<path d="M74.7788 10.6446L72.9643 14.8509C71.3698 18.5716 70.1143 21.5499 69.1979 23.7859C68.2815 26.0219 67.4384 28.2946 66.6686 30.604H58.4484C57.697 28.3313 56.863 26.0861 55.9466 23.8684C55.0486 21.6324 53.8389 18.7732 52.3177 15.2908C52.0611 14.7043 51.3921 13.1556 50.3107 10.6446H57.9536C58.5034 12.4225 59.319 14.7043 60.4004 17.4902C61.3534 19.9462 62.1232 22.0722 62.7097 23.8684C63.0946 22.6037 63.5528 21.2566 64.0843 19.827C64.6342 18.3791 64.9641 17.4994 65.0741 17.1878C66.1371 14.3836 66.916 12.2025 67.4109 10.6446H74.7788Z" fill="#CC99FF"/>
<path d="M82.7329 25.5729C89.6976 25.5362 94.747 25.4354 97.8811 25.2705C97.7528 26.0219 97.6703 26.8009 97.6336 27.6073C97.6153 28.3954 97.6061 29.3943 97.6061 30.604H76.2447C76.3913 27.0483 76.4646 23.7218 76.4646 20.6243C76.4646 17.5269 76.3913 14.2003 76.2447 10.6446H97.6061V15.6207H82.7329V18.26C83.6126 18.2783 84.9139 18.2875 86.6367 18.2875C89.5509 18.2875 92.5659 18.2325 95.6817 18.1225V22.8512C92.5659 22.7412 89.5509 22.6862 86.6367 22.6862C84.9139 22.6862 83.6126 22.6954 82.7329 22.7137V25.5729Z" fill="#CC99FF"/>
<path d="M100.086 28.2396C100.709 27.3049 101.222 26.4343 101.625 25.6279C102.047 24.8215 102.45 23.8867 102.835 22.8237C104.136 23.5751 105.648 24.1616 107.371 24.5832C109.094 25.0047 110.698 25.2155 112.182 25.2155C113.703 25.2155 114.776 25.0872 115.399 24.8306C116.022 24.5557 116.333 24.2624 116.333 23.9509C116.333 22.8328 114.629 22.2738 111.22 22.2738C107.481 22.2738 104.768 21.8889 103.082 21.1192C101.396 20.3311 100.553 19.0664 100.553 17.3252C100.553 14.8509 101.579 13.0273 103.632 11.8543C105.685 10.6813 108.352 10.0948 111.632 10.0948C113.538 10.0948 115.49 10.3422 117.488 10.8371C119.504 11.3136 121.319 11.9734 122.932 12.8165C122.4 14.0262 121.841 15.5016 121.255 17.2428C121.145 17.6093 121.053 17.8843 120.98 18.0675C120.045 17.3161 118.634 16.6929 116.746 16.1981C114.858 15.6849 113.19 15.4283 111.742 15.4283C110.001 15.4283 108.828 15.5474 108.223 15.7857C107.618 16.0056 107.316 16.3355 107.316 16.7754C107.316 17.2153 107.728 17.5727 108.553 17.8476C109.396 18.1042 110.606 18.2325 112.182 18.2325C116.068 18.2325 118.89 18.6815 120.65 19.5796C122.409 20.4594 123.289 21.8156 123.289 23.6484C123.289 26.2144 122.354 28.0655 120.485 29.2019C118.615 30.3199 115.784 30.8789 111.99 30.8789C109.955 30.8789 107.884 30.659 105.776 30.2191C103.669 29.7609 101.772 29.1011 100.086 28.2396Z" fill="white"/>
<path d="M148.851 10.6446L148.329 11.4419C146.368 14.4844 144.681 17.1786 143.27 19.5246C141.877 21.8523 140.713 23.9967 139.779 25.9578V30.604H132.603V25.4904C131.925 24.1158 131.128 22.7046 130.211 21.2566C129.295 19.7904 127.994 17.7834 126.307 15.2358C124.988 13.2931 123.98 11.7627 123.283 10.6446H130.981C131.531 11.7627 132.429 13.4214 133.675 15.6207C134.922 17.8568 135.774 19.433 136.232 20.3494C136.874 19.0114 137.735 17.3711 138.816 15.4283C140.081 13.1556 140.933 11.561 141.373 10.6446H148.851Z" fill="white"/>
<path d="M173.384 10.6721C173.256 13.7696 173.191 17.087 173.191 20.6243C173.191 24.18 173.256 27.5065 173.384 30.604H163.542L156.889 15.5932L157.383 30.604H150.318C150.465 27.0483 150.538 23.7218 150.538 20.6243C150.538 17.5452 150.465 14.2278 150.318 10.6721H160.435L167.116 26.0953L166.648 10.6721H173.384Z" fill="white"/>
<path d="M187.678 30.8789C183.536 30.8789 180.485 29.9992 178.523 28.2396C176.562 26.4801 175.582 23.9692 175.582 20.7068C175.582 17.426 176.562 14.8326 178.523 12.9265C180.485 11.0204 183.536 10.0673 187.678 10.0673C193.47 10.0673 197.346 12.0559 199.308 16.0331C197.658 16.6013 195.724 17.4535 193.507 18.5899C192.975 17.5635 192.132 16.8029 190.977 16.308C189.841 15.8132 188.677 15.5657 187.486 15.5657C185.726 15.5657 184.416 16.0331 183.555 16.9678C182.693 17.8843 182.262 19.0206 182.262 20.3769C182.262 21.8431 182.721 23.0436 183.637 23.9784C184.572 24.8948 185.992 25.353 187.898 25.353C189.42 25.353 190.629 25.1055 191.527 24.6107C192.425 24.0975 193.085 23.2911 193.507 22.1914C195.01 22.9978 196.934 23.905 199.28 24.9131C198.364 27.1308 196.833 28.6795 194.689 29.5593C192.544 30.439 190.208 30.8789 187.678 30.8789Z" fill="white"/>
<path d="M3.63357 16.1752L0 13.6771H10.9007L17.0324 23.6695L12.4904 21.1714L9.53812 25.9404H19.3033V35.7057H10.3901C9.03008 35.7057 7.7839 34.9461 7.1606 33.7373L1.60161 22.9562C1.02889 21.8455 1.06715 20.5184 1.7029 19.4425L3.63357 16.1752Z" fill="#4E529A"/>
<path d="M3.63357 16.1752L0 13.6771H10.9007L17.0324 23.6695L12.4904 21.1714L9.53812 25.9404C8.13923 28.3456 6.60451 31.2473 7.1606 33.7373L1.60161 22.9562C1.02889 21.8455 1.06715 20.5184 1.7029 19.4425L3.63357 16.1752Z" fill="#8C8DFC"/>
<path d="M32.259 5.41148L36.1436 3.32511L31.1521 13.0159L19.4613 13.8914L23.7618 10.9974L20.874 6.18908L16.4025 14.8704L7.72116 10.3988L11.8026 2.47498C12.4253 1.26589 13.6712 0.505827 15.0312 0.50524L27.1611 0.5C28.4108 0.49946 29.5731 1.14116 30.2385 2.199L32.259 5.41148Z" fill="#4E529A"/>
<path d="M32.259 5.41148L36.1436 3.32511L31.1521 13.0159L19.4613 13.8914L23.7618 10.9974L20.874 6.18908C19.3764 3.84412 17.4995 1.15107 15.0312 0.50524L27.1611 0.5C28.4108 0.49946 29.5731 1.14116 30.2385 2.199L32.259 5.41148Z" fill="#8C8DFC"/>
<path d="M26.8035 36.1042L26.4569 40.5L21.0066 31.0597L26.5943 20.7534L26.7019 25.9359L32.3082 26.1081L27.4256 17.6512L35.8825 12.7686L40.3391 20.4876C41.0191 21.6655 40.9845 23.1245 40.2492 24.2687L33.6921 34.4734C33.0165 35.5248 31.8481 36.1552 30.5984 36.1426L26.8035 36.1042Z" fill="#6E5795"/>
<path d="M26.8035 36.1042L26.4569 40.5L21.0066 31.0597L26.5943 20.7534L26.7019 25.9359L32.3082 26.1081C35.0906 26.117 38.3709 25.9953 40.2492 24.2687L33.6921 34.4734C33.0165 35.5248 31.8481 36.1552 30.5984 36.1426L26.8035 36.1042Z" fill="#CC99FF"/>
</svg>
