<svg width="130" height="28" viewBox="0 0 130 28" fill="none" xmlns="http://www.w3.org/2000/svg">
<path d="M119.021 22.4526C117.881 22.4526 116.883 22.1657 116.026 21.5918C115.169 21.018 114.499 20.2376 114.017 19.2506C113.543 18.2636 113.306 17.1504 113.306 15.9109C113.306 14.6485 113.547 13.5276 114.029 12.5483C114.518 11.5613 115.203 10.7847 116.083 10.2186C116.963 9.65239 117.996 9.3693 119.182 9.3693C120.36 9.3693 121.351 9.65621 122.154 10.23C122.957 10.8039 123.566 11.5843 123.979 12.5713C124.392 13.5582 124.599 14.6715 124.599 15.9109C124.599 17.1504 124.388 18.2636 123.967 19.2506C123.554 20.2376 122.935 21.018 122.108 21.5918C121.282 22.1657 120.253 22.4526 119.021 22.4526ZM119.526 19.6753C120.222 19.6753 120.777 19.5184 121.19 19.2047C121.611 18.891 121.913 18.4511 122.097 17.8849C122.28 17.3187 122.372 16.6607 122.372 15.9109C122.372 15.1611 122.28 14.5032 122.097 13.937C121.913 13.3708 121.619 12.9309 121.213 12.6172C120.815 12.3035 120.291 12.1466 119.641 12.1466C118.944 12.1466 118.371 12.3188 117.919 12.6631C117.475 12.9997 117.146 13.455 116.932 14.0288C116.718 14.595 116.611 15.2224 116.611 15.9109C116.611 16.6072 116.714 17.2422 116.921 17.8161C117.127 18.3822 117.445 18.8336 117.873 19.1703C118.302 19.5069 118.853 19.6753 119.526 19.6753ZM122.372 22.1083V13.6156H121.982V5.58203H125.127V22.1083H122.372Z" fill="white"/>
<path d="M108.991 22.1077V16.2546C108.991 15.9715 108.976 15.6119 108.945 15.1758C108.915 14.732 108.819 14.2883 108.658 13.8445C108.498 13.4008 108.234 13.0297 107.866 12.7313C107.507 12.4329 106.994 12.2837 106.329 12.2837C106.061 12.2837 105.774 12.3258 105.468 12.4099C105.162 12.4941 104.875 12.6586 104.607 12.9034C104.339 13.1406 104.117 13.4926 103.942 13.9593C103.773 14.426 103.689 15.0457 103.689 15.8185L101.899 14.9692C101.899 13.9899 102.098 13.0718 102.495 12.2148C102.893 11.3579 103.49 10.6655 104.286 10.1376C105.089 9.60966 106.099 9.3457 107.316 9.3457C108.287 9.3457 109.079 9.5102 109.691 9.8392C110.303 10.1682 110.778 10.5852 111.114 11.0901C111.459 11.5951 111.703 12.123 111.849 12.6739C111.994 13.2171 112.082 13.7145 112.113 14.1659C112.143 14.6173 112.159 14.9463 112.159 15.1528V22.1077H108.991ZM100.521 22.1077V9.71295H103.299V13.8216H103.689V22.1077H100.521Z" fill="white"/>
<path d="M93.5953 22.4524C92.3253 22.4524 91.2044 22.1808 90.2327 21.6376C89.2687 21.0867 88.5112 20.3331 87.9603 19.3767C87.4171 18.4127 87.1455 17.3109 87.1455 16.0715C87.1455 14.7172 87.4133 13.539 87.9489 12.5367C88.4844 11.5344 89.2228 10.7578 90.1638 10.2069C91.1049 9.6484 92.1876 9.36914 93.4117 9.36914C94.7124 9.36914 95.818 9.67518 96.7284 10.2873C97.6389 10.8993 98.3122 11.7601 98.7483 12.8695C99.1844 13.9789 99.3375 15.2834 99.2074 16.783H96.1202V15.6353C96.1202 14.3729 95.9174 13.4663 95.5119 12.9154C95.1141 12.3569 94.4599 12.0776 93.5494 12.0776C92.4859 12.0776 91.7017 12.4028 91.1967 13.0531C90.6994 13.6958 90.4508 14.6484 90.4508 15.9108C90.4508 17.0661 90.6994 17.9613 91.1967 18.5963C91.7017 19.2237 92.44 19.5374 93.4117 19.5374C94.0238 19.5374 94.5479 19.4035 94.984 19.1357C95.4201 18.8679 95.7529 18.4815 95.9825 17.9766L99.1041 18.8717C98.6374 20.0041 97.8991 20.884 96.8891 21.5114C95.8868 22.1387 94.7889 22.4524 93.5953 22.4524ZM89.4867 16.783V14.4647H97.704V16.783H89.4867Z" fill="white"/>
<path d="M76.5635 22.1083V5.58203H79.6851V19.1932H86.8006V22.1083H76.5635Z" fill="white"/>
<path d="M68.4391 22.4524C67.1919 22.4524 66.0978 22.1732 65.1568 21.6146C64.2157 21.0561 63.4812 20.2872 62.9533 19.3079C62.433 18.3209 62.1729 17.1885 62.1729 15.9108C62.1729 14.6178 62.4406 13.4816 62.9762 12.5022C63.5118 11.5153 64.2501 10.7463 65.1912 10.1955C66.1323 9.64458 67.2149 9.36914 68.4391 9.36914C69.6862 9.36914 70.7803 9.6484 71.7214 10.2069C72.6701 10.7655 73.4084 11.5382 73.9363 12.5252C74.4643 13.5045 74.7282 14.6331 74.7282 15.9108C74.7282 17.1962 74.4604 18.3323 73.9249 19.3193C73.3969 20.2987 72.6586 21.0676 71.7099 21.6261C70.7688 22.177 69.6785 22.4524 68.4391 22.4524ZM68.4391 19.5374C69.4413 19.5374 70.1873 19.2007 70.677 18.5274C71.1743 17.8465 71.423 16.9743 71.423 15.9108C71.423 14.809 71.1705 13.9292 70.6655 13.2712C70.1682 12.6132 69.426 12.2842 68.4391 12.2842C67.7581 12.2842 67.1996 12.4372 66.7635 12.7433C66.3274 13.0493 66.0022 13.4739 65.788 14.0172C65.5814 14.5604 65.4781 15.1916 65.4781 15.9108C65.4781 17.0202 65.7268 17.9039 66.2241 18.5619C66.7291 19.2122 67.4674 19.5374 68.4391 19.5374Z" fill="white"/>
<path d="M54.5449 22.1079V9.71319H57.2993V12.743L57.0009 12.3528C57.1616 11.9243 57.3758 11.5341 57.6436 11.1822C57.9114 10.8302 58.2404 10.5395 58.6306 10.31C58.929 10.1263 59.2541 9.9848 59.6061 9.88534C59.958 9.77823 60.3215 9.71319 60.6964 9.69024C61.0713 9.65963 61.4462 9.66728 61.8211 9.71319V12.6282C61.4768 12.5211 61.0751 12.4867 60.616 12.525C60.1646 12.5556 59.7553 12.6588 59.388 12.8348C59.0208 13.0031 58.7109 13.2288 58.4584 13.5119C58.206 13.7874 58.0147 14.1164 57.8846 14.4989C57.7545 14.8738 57.6895 15.2985 57.6895 15.7728V22.1079H54.5449Z" fill="white"/>
<path d="M47.2594 22.4524C45.9893 22.4524 44.8685 22.1808 43.8968 21.6376C42.9327 21.0867 42.1753 20.3331 41.6244 19.3767C41.0812 18.4127 40.8096 17.3109 40.8096 16.0715C40.8096 14.7172 41.0774 13.539 41.6129 12.5367C42.1485 11.5344 42.8868 10.7578 43.8279 10.2069C44.769 9.6484 45.8516 9.36914 47.0758 9.36914C48.3765 9.36914 49.482 9.67518 50.3925 10.2873C51.303 10.8993 51.9763 11.7601 52.4124 12.8695C52.8485 13.9789 53.0015 15.2834 52.8714 16.783H49.7843V15.6353C49.7843 14.3729 49.5815 13.4663 49.176 12.9154C48.7781 12.3569 48.124 12.0776 47.2135 12.0776C46.15 12.0776 45.3658 12.4028 44.8608 13.0531C44.3635 13.6958 44.1148 14.6484 44.1148 15.9108C44.1148 17.0661 44.3635 17.9613 44.8608 18.5963C45.3658 19.2237 46.1041 19.5374 47.0758 19.5374C47.6879 19.5374 48.212 19.4035 48.6481 19.1357C49.0842 18.8679 49.417 18.4815 49.6465 17.9766L52.7682 18.8717C52.3014 20.0041 51.5631 20.884 50.5532 21.5114C49.5509 22.1387 48.453 22.4524 47.2594 22.4524ZM43.1508 16.783V14.4647H51.368V16.783H43.1508Z" fill="white"/>
<path d="M26.3564 22.1083V21.7181L34.2064 8.49708H27.045V5.58203H39.6693V5.97223L31.8652 19.1703H39.4397V22.1083H26.3564Z" fill="white"/>
<rect x="-2.07506" y="0.365888" width="7.67885" height="22.3068" rx="3.83942" transform="matrix(-0.819152 -0.573576 -0.573576 0.819152 19.6704 5.57519)" stroke="white" stroke-width="2.97984"/>
</svg>
