<svg width="1432" height="283" viewBox="0 0 1432 283" fill="none" xmlns="http://www.w3.org/2000/svg">
<path opacity="0.12" d="M0.791085 277V270.799L134.208 48.8762H10.1866V6.40838H212.567V12.7974L79.9016 234.344H209.372V277H0.791085ZM330.983 282.637C310.438 282.637 292.398 278.19 276.864 269.296C261.33 260.401 249.179 248.062 240.41 232.277C231.766 216.493 227.444 198.328 227.444 177.783C227.444 155.61 231.703 136.38 240.222 120.094C248.74 103.684 260.579 90.9683 275.737 81.9485C290.895 72.9288 308.433 68.419 328.352 68.419C349.398 68.419 367.25 73.3673 381.907 83.2639C396.689 93.0353 407.65 106.878 414.791 124.792C421.932 142.706 424.625 163.815 422.871 188.118H377.96V171.582C377.835 149.534 373.952 133.436 366.31 123.289C358.668 113.142 346.642 108.068 330.231 108.068C311.691 108.068 297.91 113.831 288.891 125.356C279.871 136.756 275.361 153.48 275.361 175.528C275.361 196.073 279.871 211.983 288.891 223.257C297.91 234.532 311.064 240.169 328.352 240.169C339.501 240.169 349.085 237.727 357.102 232.841C365.245 227.83 371.509 220.627 375.893 211.231L420.616 224.761C412.849 243.051 400.823 257.269 384.537 267.417C368.377 277.564 350.525 282.637 330.983 282.637ZM261.08 188.118V153.918H400.698V188.118H261.08ZM446.008 277V74.0563H486.033V123.477L481.147 117.088C483.652 110.323 486.972 104.185 491.106 98.6726C495.366 93.0353 500.439 88.4001 506.327 84.7672C511.338 81.3848 516.85 78.754 522.863 76.8749C529.002 74.8706 535.265 73.6804 541.654 73.3046C548.043 72.8035 554.244 73.0541 560.257 74.0563V116.336C554.244 114.582 547.292 114.019 539.399 114.645C531.632 115.271 524.617 117.464 518.353 121.222C512.09 124.604 506.953 128.926 502.945 134.188C499.061 139.449 496.18 145.462 494.301 152.227C492.422 158.867 491.482 166.07 491.482 173.837V277H446.008ZM663.288 282.637C642.994 282.637 625.268 278.065 610.11 268.92C594.951 259.775 583.176 247.185 574.782 231.15C566.514 214.989 562.38 196.449 562.38 175.528C562.38 154.232 566.64 135.566 575.158 119.531C583.677 103.496 595.515 90.9683 610.673 81.9485C625.832 72.9288 643.37 68.419 663.288 68.419C683.708 68.419 701.497 72.9915 716.655 82.1364C731.813 91.2814 743.589 103.934 751.982 120.094C760.376 136.13 764.572 154.607 764.572 175.528C764.572 196.574 760.313 215.177 751.794 231.338C743.401 247.373 731.625 259.963 716.467 269.108C701.309 278.127 683.583 282.637 663.288 282.637ZM663.288 240.169C681.328 240.169 694.732 234.156 703.501 222.13C712.27 210.104 716.655 194.57 716.655 175.528C716.655 155.86 712.208 140.201 703.313 128.55C694.419 116.775 681.077 110.887 663.288 110.887C651.137 110.887 641.115 113.643 633.223 119.155C625.456 124.542 619.693 132.121 615.935 141.892C612.177 151.538 610.298 162.75 610.298 175.528C610.298 195.196 614.745 210.918 623.639 222.694C632.659 234.344 645.875 240.169 663.288 240.169ZM790.941 277V0.771056H836.228V277H790.941ZM965.989 282.637C945.444 282.637 927.405 278.19 911.871 269.296C896.337 260.401 884.185 248.062 875.416 232.277C866.772 216.493 862.45 198.328 862.45 177.783C862.45 155.61 866.71 136.38 875.228 120.094C883.747 103.684 895.585 90.9683 910.743 81.9485C925.902 72.9288 943.44 68.419 963.358 68.419C984.404 68.419 1002.26 73.3673 1016.91 83.2639C1031.7 93.0353 1042.66 106.878 1049.8 124.792C1056.94 142.706 1059.63 163.815 1057.88 188.118H1012.97V171.582C1012.84 149.534 1008.96 133.436 1001.32 123.289C993.675 113.142 981.648 108.068 965.238 108.068C946.697 108.068 932.917 113.831 923.897 125.356C914.877 136.756 910.368 153.48 910.368 175.528C910.368 196.073 914.877 211.983 923.897 223.257C932.917 234.532 946.071 240.169 963.358 240.169C974.508 240.169 984.091 237.727 992.109 232.841C1000.25 227.83 1006.52 220.627 1010.9 211.231L1055.62 224.761C1047.86 243.051 1035.83 257.269 1019.54 267.417C1003.38 277.564 985.532 282.637 965.989 282.637ZM896.086 188.118V153.918H1035.7V188.118H896.086ZM1215.88 277V179.286C1215.88 172.897 1215.44 165.819 1214.56 158.052C1213.69 150.285 1211.62 142.832 1208.36 135.691C1205.23 128.425 1200.47 122.475 1194.08 117.84C1187.82 113.204 1179.3 110.887 1168.52 110.887C1162.76 110.887 1157.06 111.826 1151.42 113.705C1145.79 115.585 1140.65 118.842 1136.02 123.477C1131.51 127.987 1127.87 134.25 1125.12 142.268C1122.36 150.16 1120.98 160.307 1120.98 172.709L1094.11 161.247C1094.11 143.959 1097.43 128.3 1104.07 114.269C1110.84 100.239 1120.73 89.0891 1133.76 80.8211C1146.79 72.4277 1162.82 68.231 1181.87 68.231C1196.9 68.231 1209.3 70.7365 1219.07 75.7475C1228.84 80.7584 1236.61 87.1474 1242.37 94.9144C1248.14 102.681 1252.4 110.949 1255.15 119.719C1257.91 128.488 1259.66 136.819 1260.41 144.711C1261.29 152.478 1261.73 158.804 1261.73 163.69V277H1215.88ZM1075.13 277V74.0563H1115.53V137.006H1120.98V277H1075.13ZM1370.04 282.637C1351.37 282.637 1335.08 277.94 1321.18 268.544C1307.27 259.148 1296.5 246.371 1288.86 230.21C1281.22 214.05 1277.4 195.823 1277.4 175.528C1277.4 154.983 1281.22 136.693 1288.86 120.658C1296.63 104.498 1307.59 91.7825 1321.74 82.5123C1335.9 73.1167 1352.56 68.419 1371.73 68.419C1391.02 68.419 1407.18 73.1167 1420.21 82.5123C1433.36 91.7825 1443.32 104.498 1450.09 120.658C1456.85 136.819 1460.23 155.108 1460.23 175.528C1460.23 195.697 1456.85 213.925 1450.09 230.21C1443.32 246.371 1433.24 259.148 1419.83 268.544C1406.43 277.94 1389.83 282.637 1370.04 282.637ZM1376.99 242.049C1389.14 242.049 1398.91 239.293 1406.3 233.781C1413.82 228.143 1419.27 220.314 1422.65 210.292C1426.16 200.27 1427.91 188.682 1427.91 175.528C1427.91 162.249 1426.16 150.661 1422.65 140.765C1419.27 130.743 1413.94 122.976 1406.68 117.464C1399.41 111.826 1390.02 109.008 1378.49 109.008C1366.34 109.008 1356.32 112.014 1348.43 118.027C1340.53 123.915 1334.71 131.933 1330.95 142.08C1327.19 152.102 1325.31 163.251 1325.31 175.528C1325.31 187.93 1327.13 199.205 1330.76 209.352C1334.52 219.374 1340.22 227.329 1347.86 233.217C1355.5 239.105 1365.21 242.049 1376.99 242.049ZM1427.91 277V134.564H1422.27V6.40838H1467.94V277H1427.91Z" fill="url(#paint0_linear_348_30821)"/>
<defs>
<linearGradient id="paint0_linear_348_30821" x1="738.5" y1="-17" x2="738.5" y2="284" gradientUnits="userSpaceOnUse">
<stop stop-color="#8A8A8A"/>
<stop offset="1" stop-color="#8A8A8A" stop-opacity="0"/>
</linearGradient>
</defs>
</svg>
